<?xml version="1.0"?>
<svg xmlns="http://www.w3.org/2000/svg" xmlns:xlink="http://www.w3.org/1999/xlink" xmlns:svgjs="http://svgjs.com/svgjs" version="1.1" width="512" height="512" x="0" y="0" viewBox="0 0 58 58" style="enable-background:new 0 0 512 512" xml:space="preserve" class=""><g>
<g xmlns="http://www.w3.org/2000/svg" id="XMLID_8_">
	<path id="XMLID_128_" style="" d="M54.783,50H3.217C1.439,50,0,48.56,0,46.783V11.217C0,9.44,1.439,8,3.217,8h51.566   C56.56,8,58,9.44,58,11.217v35.566C58,48.56,56.56,50,54.783,50" fill="#ccb375" data-original="#ccb375" class=""/>
	<path id="XMLID_127_" style="" d="M15,36H6c-0.553,0-1,0.448-1,1s0.447,1,1,1h9c0.553,0,1-0.448,1-1S15.553,36,15,36" fill="#ccb375" data-original="#7a693c" class=""/>
	<path id="XMLID_126_" style="" d="M29,37c0-0.552-0.447-1-1-1h-9c-0.553,0-1,0.448-1,1s0.447,1,1,1h9   C28.553,38,29,37.552,29,37" fill="#ccb375" data-original="#7a693c" class=""/>
	<path id="XMLID_125_" style="" d="M7,41H6c-0.553,0-1,0.448-1,1s0.447,1,1,1h1c0.553,0,1-0.448,1-1S7.553,41,7,41" fill="#ccb375" data-original="#7a693c" class=""/>
	<path id="XMLID_124_" style="" d="M13,41h-2c-0.553,0-1,0.448-1,1s0.447,1,1,1h2c0.553,0,1-0.448,1-1S13.553,41,13,41   " fill="#ccb375" data-original="#7a693c" class=""/>
	<path id="XMLID_123_" style="" d="M18,41h-1c-0.553,0-1,0.448-1,1s0.447,1,1,1h1c0.553,0,1-0.448,1-1S18.553,41,18,41   " fill="#ccb375" data-original="#7a693c" class=""/>
	<path id="XMLID_122_" style="" d="M24,41h-2c-0.553,0-1,0.448-1,1s0.447,1,1,1h2c0.553,0,1-0.448,1-1S24.553,41,24,41   " fill="#ccb375" data-original="#7a693c" class=""/>
	<path id="XMLID_121_" style="" d="M27.29,41.29C27.109,41.48,27,41.74,27,42c0,0.26,0.109,0.52,0.29,0.71   C27.479,42.89,27.74,43,28,43s0.519-0.11,0.71-0.29C28.89,42.52,29,42.26,29,42c0-0.26-0.11-0.52-0.29-0.71   C28.33,40.92,27.648,40.92,27.29,41.29" fill="#ccb375" data-original="#7a693c" class=""/>
	<path id="XMLID_120_" style="" d="M46,39c0,3.314-2.686,6-6,6s-6-2.686-6-6s2.686-6,6-6S46,35.686,46,39" fill="#e74c3d" data-original="#e74c3d"/>
	<path id="XMLID_119_" style="" d="M53,39c0,3.314-2.686,6-6,6s-6-2.686-6-6s2.686-6,6-6S53,35.686,53,39" fill="#f0c41b" data-original="#f0c41b" class=""/>
	<path id="XMLID_118_" style="" d="M20.745,28H7.255C6.563,28,6,27.438,6,26.745v-9.49C6,16.562,6.563,16,7.255,16   h13.49C21.438,16,22,16.562,22,17.255v9.49C22,27.438,21.438,28,20.745,28" fill="#f0c41b" data-original="#f0c41b" class=""/>
	<path id="XMLID_115_" style="" d="M20.745,29H7.255C6.012,29,5,27.988,5,26.745v-9.49C5,16.012,6.012,15,7.255,15   h13.49C21.988,15,23,16.012,23,17.255v9.49C23,27.988,21.988,29,20.745,29 M7.255,17C7.113,17,7,17.114,7,17.255v9.49   C7,26.886,7.113,27,7.255,27h13.49C20.886,27,21,26.886,21,26.745v-9.49C21,17.114,20.886,17,20.745,17H7.255z" fill="#f3d55c" data-original="#f3d55c" class=""/>
	<path id="XMLID_114_" style="" d="M22,17.255C22,16.562,21.438,16,20.745,16H16h-2.745C12.561,16,12,16.562,12,17.255   V20v6.745C12,27.438,12.561,28,13.255,28h1.49C15.438,28,16,27.438,16,26.745v-5.49C16,20.562,16.562,20,17.255,20h3.49   C21.438,20,22,19.438,22,18.745V17.255z" fill="#f0c41b" data-original="#f0c41b" class=""/>
	<path id="XMLID_111_" style="" d="M14.745,29h-1.49C12.012,29,11,27.988,11,26.745v-9.49   C11,16.012,12.012,15,13.255,15h7.49C21.988,15,23,16.012,23,17.255v1.49C23,19.988,21.988,21,20.745,21h-3.49   C17.113,21,17,21.114,17,21.255v5.49C17,27.988,15.988,29,14.745,29 M13.255,17C13.113,17,13,17.114,13,17.255v9.49   C13,26.886,13.113,27,13.255,27h1.49C14.886,27,15,26.886,15,26.745v-5.49C15,20.012,16.012,19,17.255,19h3.49   C20.886,19,21,18.886,21,18.745v-1.49C21,17.114,20.886,17,20.745,17H13.255z" fill="#f3d55c" data-original="#f3d55c" class=""/>
	<line id="XMLID_110_" style="" x1="16" y1="24" x2="22" y2="24" fill="#f0c41b" data-original="#f0c41b" class=""/>
	<path id="XMLID_109_" style="" d="M22,25h-6c-0.553,0-1-0.448-1-1s0.447-1,1-1h6c0.553,0,1,0.448,1,1S22.553,25,22,25   " fill="#f3d55c" data-original="#f3d55c" class=""/>
	<line id="XMLID_108_" style="" x1="12" y1="20" x2="6" y2="20" fill="#f0c41b" data-original="#f0c41b" class=""/>
	<path id="XMLID_107_" style="" d="M12,21H6c-0.553,0-1-0.448-1-1s0.447-1,1-1h6c0.553,0,1,0.448,1,1S12.553,21,12,21" fill="#f3d55c" data-original="#f3d55c" class=""/>
	<line id="XMLID_106_" style="" x1="12" y1="24" x2="6" y2="24" fill="#f0c41b" data-original="#f0c41b" class=""/>
	<path id="XMLID_105_" style="" d="M12,25H6c-0.553,0-1-0.448-1-1s0.447-1,1-1h6c0.553,0,1,0.448,1,1S12.553,25,12,25" fill="#f3d55c" data-original="#f3d55c" class=""/>
</g>
<g xmlns="http://www.w3.org/2000/svg">
</g>
<g xmlns="http://www.w3.org/2000/svg">
</g>
<g xmlns="http://www.w3.org/2000/svg">
</g>
<g xmlns="http://www.w3.org/2000/svg">
</g>
<g xmlns="http://www.w3.org/2000/svg">
</g>
<g xmlns="http://www.w3.org/2000/svg">
</g>
<g xmlns="http://www.w3.org/2000/svg">
</g>
<g xmlns="http://www.w3.org/2000/svg">
</g>
<g xmlns="http://www.w3.org/2000/svg">
</g>
<g xmlns="http://www.w3.org/2000/svg">
</g>
<g xmlns="http://www.w3.org/2000/svg">
</g>
<g xmlns="http://www.w3.org/2000/svg">
</g>
<g xmlns="http://www.w3.org/2000/svg">
</g>
<g xmlns="http://www.w3.org/2000/svg">
</g>
<g xmlns="http://www.w3.org/2000/svg">
</g>
</g></svg>
