<svg width="191" height="295" xmlns="http://www.w3.org/2000/svg">
 <title/>
 <desc/>

 <g>
  <title>background</title>
  <rect fill="none" id="canvas_background" height="402" width="582" y="-1" x="-1"/>
 </g>
 <g>
  <title>Layer 1</title>
  <path id="Shape" fill="#84b1f1" d="m147.922,210.005c-23.39,0 -42.418,19.029 -42.418,42.418c0,23.389 19.028,42.419 42.418,42.419c23.39,0 42.419,-19.029 42.419,-42.419c0,-23.39 -19.029,-42.418 -42.419,-42.418zm0,72.838c-16.772,0 -30.418,-13.646 -30.418,-30.419c0,-16.773 13.646,-30.418 30.418,-30.418c16.773,0 30.419,13.646 30.419,30.418c0,16.772 -13.645,30.419 -30.419,30.419z"/>
  <path id="Shape" fill="#84b1f1" d="m77.567,109.567c1.535,0 3.071,-0.586 4.242,-1.757l35.781,-35.78c7.708,7.894 18.454,12.808 30.333,12.808c23.39,0 42.419,-19.029 42.419,-42.418c0,-23.389 -19.03,-42.42 -42.42,-42.42c-23.39,0 -42.418,19.029 -42.418,42.419c0,7.15 1.785,13.888 4.923,19.804l-37.102,37.101c-2.344,2.343 -2.344,6.142 -0.001,8.485c1.172,1.172 2.707,1.758 4.243,1.758zm70.355,-97.567c16.773,0 30.419,13.646 30.419,30.419c0,16.773 -13.646,30.418 -30.419,30.418c-16.772,0 -30.418,-13.646 -30.418,-30.418c0,-16.772 13.646,-30.419 30.418,-30.419z"/>
  <path id="Shape" fill="#f8b502" d="m105.908,214.935l-35.364,-35.363c9.048,-7.785 14.794,-19.306 14.794,-32.151c0,-23.39 -19.028,-42.419 -42.418,-42.419c-23.39,0 -42.419,19.029 -42.419,42.419c0,23.39 19.03,42.419 42.419,42.419c6.139,0 11.972,-1.321 17.244,-3.678l37.259,37.258c1.171,1.171 2.707,1.757 4.242,1.757c1.535,0 3.071,-0.586 4.242,-1.757c2.344,-2.343 2.344,-6.142 0.001,-8.485zm-93.407,-67.514c0,-16.773 13.646,-30.419 30.419,-30.419c16.772,0 30.418,13.646 30.418,30.419c0,16.773 -13.645,30.419 -30.418,30.419c-16.773,0 -30.419,-13.646 -30.419,-30.419z"/>
 </g>
</svg>