<svg xmlns="http://www.w3.org/2000/svg" xmlns:xlink="http://www.w3.org/1999/xlink" viewBox="0 0 2297.51 1375.2"><defs><style>.cls-1{fill:url(#linear-gradient);}.cls-2{fill:#2674bc;}.cls-3{fill:url(#linear-gradient-2);}.cls-4{isolation:isolate;}.cls-5{fill:#ebeff2;}.cls-40,.cls-6{fill:#d8dee8;}.cls-7{clip-path:url(#clip-path);}.cls-8{opacity:0.5;}.cls-11,.cls-8{mix-blend-mode:soft-light;}.cls-9{fill:#fff;}.cls-10{clip-path:url(#clip-path-2);}.cls-11{opacity:0.7;}.cls-12{fill:url(#linear-gradient-4);}.cls-13{fill:#b5b9be;}.cls-14{fill:url(#linear-gradient-5);}.cls-15{fill:url(#linear-gradient-6);}.cls-106,.cls-108,.cls-16,.cls-18,.cls-31,.cls-40,.cls-48,.cls-53,.cls-63,.cls-64,.cls-79{opacity:0.3;}.cls-106,.cls-108,.cls-16,.cls-18,.cls-31,.cls-40,.cls-48,.cls-53,.cls-61,.cls-63,.cls-64,.cls-68,.cls-72,.cls-79{mix-blend-mode:multiply;}.cls-16{fill:url(#linear-gradient-7);}.cls-17{fill:url(#linear-gradient-8);}.cls-19{fill:url(#linear-gradient-9);}.cls-20{fill:url(#linear-gradient-10);}.cls-21{fill:url(#linear-gradient-11);}.cls-22{fill:url(#linear-gradient-12);}.cls-23{fill:#f4f7fa;}.cls-24{fill:#26264f;}.cls-25{clip-path:url(#clip-path-3);}.cls-26{clip-path:url(#clip-path-4);}.cls-27{fill:url(#linear-gradient-14);}.cls-28{fill:url(#linear-gradient-15);}.cls-29{fill:url(#linear-gradient-16);}.cls-30{fill:url(#linear-gradient-17);}.cls-31{fill:url(#linear-gradient-18);}.cls-32{fill:url(#linear-gradient-19);}.cls-33{fill:url(#linear-gradient-20);}.cls-34{fill:url(#linear-gradient-21);}.cls-35{fill:url(#linear-gradient-22);}.cls-36{fill:url(#linear-gradient-23);}.cls-37{fill:url(#linear-gradient-24);}.cls-38{fill:url(#linear-gradient-25);}.cls-39{fill:url(#linear-gradient-26);}.cls-41{fill:url(#linear-gradient-27);}.cls-42{fill:url(#linear-gradient-28);}.cls-43{fill:url(#linear-gradient-29);}.cls-44{fill:url(#linear-gradient-30);}.cls-45{fill:url(#linear-gradient-31);}.cls-46{fill:url(#linear-gradient-32);}.cls-47,.cls-48{fill:url(#linear-gradient-33);}.cls-49{fill:url(#linear-gradient-35);}.cls-50{fill:url(#linear-gradient-36);}.cls-51{fill:url(#linear-gradient-37);}.cls-52{fill:url(#linear-gradient-38);}.cls-53{fill:url(#linear-gradient-39);}.cls-54{fill:url(#linear-gradient-40);}.cls-55{fill:url(#linear-gradient-41);}.cls-56{fill:url(#linear-gradient-42);}.cls-57{fill:url(#linear-gradient-43);}.cls-58{fill:#b79e67;}.cls-59,.cls-63{fill:#ccb375;}.cls-60{fill:url(#linear-gradient-44);}.cls-61{opacity:0.15;}.cls-62{fill:url(#linear-gradient-45);}.cls-64{fill:url(#linear-gradient-46);}.cls-65{fill:url(#linear-gradient-47);}.cls-66{fill:url(#linear-gradient-48);}.cls-67,.cls-68{fill:url(#linear-gradient-49);}.cls-68,.cls-72{opacity:0.25;}.cls-69{fill:url(#linear-gradient-51);}.cls-70{fill:url(#linear-gradient-52);}.cls-71{fill:url(#linear-gradient-53);}.cls-72{fill:url(#linear-gradient-54);}.cls-73{fill:url(#linear-gradient-55);}.cls-74{fill:url(#linear-gradient-56);}.cls-75{fill:url(#linear-gradient-57);}.cls-76{fill:url(#linear-gradient-58);}.cls-77{fill:url(#linear-gradient-59);}.cls-78{fill:url(#linear-gradient-60);}.cls-79{fill:url(#linear-gradient-61);}.cls-80{fill:url(#linear-gradient-62);}.cls-81{fill:url(#linear-gradient-63);}.cls-82{fill:url(#linear-gradient-64);}.cls-83{fill:url(#linear-gradient-65);}.cls-84{fill:#c2c2c2;}.cls-85{fill:url(#linear-gradient-66);}.cls-86{fill:url(#linear-gradient-67);}.cls-87{fill:url(#linear-gradient-68);}.cls-88{fill:url(#linear-gradient-69);}.cls-89{fill:url(#linear-gradient-70);}.cls-90{fill:url(#linear-gradient-71);}.cls-91{fill:url(#linear-gradient-72);}.cls-92{fill:#999;}.cls-93{fill:url(#linear-gradient-73);}.cls-94{fill:url(#linear-gradient-74);}.cls-95{fill:url(#linear-gradient-75);}.cls-96{fill:url(#linear-gradient-76);}.cls-97{fill:url(#linear-gradient-77);}.cls-98{fill:url(#linear-gradient-78);}.cls-99{fill:url(#linear-gradient-79);}.cls-100{fill:url(#linear-gradient-80);}.cls-101{fill:url(#linear-gradient-81);}.cls-102{fill:url(#linear-gradient-82);}.cls-103{fill:url(#linear-gradient-83);}.cls-104{fill:url(#linear-gradient-84);}.cls-105{fill:url(#linear-gradient-85);}.cls-106{fill:url(#linear-gradient-86);}.cls-107{fill:url(#linear-gradient-87);}.cls-108{fill:url(#linear-gradient-89);}.cls-109{fill:url(#linear-gradient-90);}.cls-110{fill:url(#linear-gradient-91);}.cls-111{fill:url(#linear-gradient-92);}.cls-112{fill:url(#linear-gradient-93);}.cls-113{fill:url(#linear-gradient-94);}.cls-114{fill:url(#linear-gradient-95);}.cls-115{fill:url(#linear-gradient-96);}.cls-116{fill:#fcb048;}.cls-117{fill:url(#linear-gradient-97);}.cls-118{fill:url(#linear-gradient-98);}.cls-119{fill:url(#linear-gradient-99);}.cls-120{fill:url(#linear-gradient-100);}.cls-121{fill:url(#linear-gradient-101);}.cls-122{fill:url(#linear-gradient-102);}.cls-123{fill:url(#linear-gradient-103);}.cls-124{fill:url(#linear-gradient-104);}.cls-125{fill:url(#linear-gradient-105);}.cls-126{fill:url(#linear-gradient-106);}.cls-127{fill:url(#linear-gradient-107);}.cls-128{fill:url(#linear-gradient-108);}.cls-129{fill:url(#linear-gradient-109);}.cls-130{fill:url(#linear-gradient-110);}.cls-131{fill:url(#linear-gradient-111);}.cls-132{fill:url(#linear-gradient-112);}.cls-133{fill:url(#linear-gradient-113);}.cls-134{fill:url(#linear-gradient-114);}.cls-135{fill:url(#linear-gradient-115);}.cls-136{fill:url(#linear-gradient-116);}.cls-137{fill:url(#linear-gradient-117);}.cls-138{fill:url(#linear-gradient-118);}.cls-139{fill:url(#linear-gradient-119);}.cls-140{fill:url(#linear-gradient-120);}.cls-141{fill:url(#linear-gradient-121);}.cls-142{fill:url(#linear-gradient-122);}.cls-143{fill:url(#linear-gradient-123);}.cls-144{fill:url(#linear-gradient-124);}.cls-145{fill:url(#linear-gradient-125);}.cls-146{fill:url(#linear-gradient-126);}.cls-147{fill:url(#linear-gradient-127);}.cls-148{fill:url(#linear-gradient-128);}.cls-149{fill:url(#linear-gradient-129);}</style><linearGradient id="linear-gradient" x1="1895.58" y1="236.26" x2="1635.15" y2="655.64" gradientUnits="userSpaceOnUse"><stop offset="0" stop-color="#e38ddd"/><stop offset="1" stop-color="#9571f6"/></linearGradient><linearGradient id="linear-gradient-2" x1="482.24" y1="676.65" x2="344.96" y2="897.71" xlink:href="#linear-gradient"/><clipPath id="clip-path"><path class="cls-1" d="M1648.9,983.8c-24.44-54-52.42-137.38-40.84-234.62,13.29-111.66,66.59-139.5,103.92-261.37,53.29-174-40.54-285.58,27.8-344.41,33.32-28.68,90-34.86,127.58-13.78,107.33,60.14,113.6,372.18-31.36,510-65.56,62.32-128.65,62.62-174.62,139C1620.75,846.14,1633.41,928,1648.9,983.8Z"/></clipPath><clipPath id="clip-path-2"><path class="cls-2" d="M1595,963.83c-12.69-45.49-25-117.36,5.72-186.16,53.53-120,177.5-95.6,279.13-229,82-107.6,44.57-180.23,140.1-256.2,16-12.71,100.22-82.27,171.59-53.64,40.22,16.13,58.51,56.24,62,63.77,51.9,113.79-48.25,311.65-195.78,413.2-84.76,58.34-115.53,45.63-267.81,119.48A896.42,896.42,0,0,0,1595,963.83Z"/></clipPath><linearGradient id="linear-gradient-4" x1="1546.89" y1="250.34" x2="865.22" y2="810.28" gradientTransform="translate(690 100.9) rotate(12.77)" xlink:href="#linear-gradient"/><linearGradient id="linear-gradient-5" x1="1054.79" y1="189.63" x2="1380.62" y2="175.47" gradientUnits="userSpaceOnUse"><stop offset="0" stop-color="#ab316d"/><stop offset="1" stop-color="#792d3d"/></linearGradient><linearGradient id="linear-gradient-6" x1="1020.21" y1="682.35" x2="1324.96" y2="682.35" gradientUnits="userSpaceOnUse"><stop offset="0" stop-color="#ffc444"/><stop offset="1" stop-color="#f36f56"/></linearGradient><linearGradient id="linear-gradient-7" x1="1102.48" y1="682.35" x2="1324.96" y2="682.35" xlink:href="#linear-gradient-6"/><linearGradient id="linear-gradient-8" x1="1479.01" y1="634.81" x2="1989.45" y2="1494.83" xlink:href="#linear-gradient-6"/><linearGradient id="linear-gradient-9" x1="1479.58" y1="562.41" x2="1887.93" y2="1521.42" xlink:href="#linear-gradient-6"/><linearGradient id="linear-gradient-10" x1="1550.93" y1="-86.49" x2="1418.71" y2="1042.13" xlink:href="#linear-gradient-5"/><linearGradient id="linear-gradient-11" x1="1613.17" y1="-137.86" x2="1225.94" y2="598.81" gradientTransform="translate(1519.07 -1032.13) rotate(82.03)" xlink:href="#linear-gradient-5"/><linearGradient id="linear-gradient-12" x1="1875.75" y1="0.17" x2="1488.53" y2="736.84" xlink:href="#linear-gradient-5"/><clipPath id="clip-path-3"><path class="cls-3" d="M516.86,1172.93c11.39-45.26,21.39-113.82-1.2-187.57-25.95-84.67-71.15-98.79-117.15-188-65.67-127.36-8.58-227-69.79-263-29.84-17.56-74.6-14.42-100.81,7.19C153.15,603.14,192,845.86,323.64,932.35c59.54,39.11,108.48,30.52,154.81,83.3C519.4,1062.29,521.06,1127.53,516.86,1172.93Z"/></clipPath><clipPath id="clip-path-4"><path class="cls-2" d="M618.28,1162.57c5-36.87,6.74-94.26-24.65-144.6-54.75-87.83-148.82-55.35-242.56-148.4C275.46,794.52,296.77,733.8,214,684.89c-13.85-8.18-87.1-53.32-139.67-23.25-29.63,17-39.55,50.22-41.41,56.46C4.77,812.5,104.34,956,230.43,1019.23c72.44,36.32,95.07,23.07,221.87,64.18A705.94,705.94,0,0,1,618.28,1162.57Z"/></clipPath><linearGradient id="linear-gradient-14" x1="-2182.36" y1="1318.35" x2="-2719.25" y2="1759.37" gradientTransform="matrix(-0.99, 0.15, 0.15, 0.99, -2206.79, -13.81)" xlink:href="#linear-gradient"/><linearGradient id="linear-gradient-15" x1="1864.25" y1="1193.67" x2="1861.57" y2="1150.32" xlink:href="#linear-gradient-6"/><linearGradient id="linear-gradient-16" x1="1847.67" y1="1192.22" x2="1868.39" y2="1192.22" xlink:href="#linear-gradient-5"/><linearGradient id="linear-gradient-17" x1="1842.59" y1="1158.75" x2="1899.31" y2="1066.97" gradientUnits="userSpaceOnUse"><stop offset="0" stop-color="#40447e"/><stop offset="1" stop-color="#3c3b6b"/></linearGradient><linearGradient id="linear-gradient-18" x1="1847.75" y1="1161.94" x2="1904.47" y2="1070.15" xlink:href="#linear-gradient-17"/><linearGradient id="linear-gradient-19" x1="1943.47" y1="866.68" x2="1978.32" y2="866.68" gradientUnits="userSpaceOnUse"><stop offset="0" stop-color="#311944"/><stop offset="1" stop-color="#6b3976"/></linearGradient><linearGradient id="linear-gradient-20" x1="1829.84" y1="1339.38" x2="1827.3" y2="1298.42" gradientTransform="translate(45.83 10.93) rotate(-5.26)" xlink:href="#linear-gradient-6"/><linearGradient id="linear-gradient-21" x1="1825.21" y1="1325.85" x2="1836.1" y2="1325.85" gradientTransform="translate(45.83 10.93) rotate(-5.26)" xlink:href="#linear-gradient-5"/><linearGradient id="linear-gradient-22" x1="1914.13" y1="1083.15" x2="1987.62" y2="1083.15" xlink:href="#linear-gradient-17"/><linearGradient id="linear-gradient-23" x1="1930.4" y1="885.45" x2="1964.95" y2="1042.71" xlink:href="#linear-gradient-5"/><linearGradient id="linear-gradient-24" x1="1930.4" y1="885.45" x2="1964.95" y2="1042.71" xlink:href="#linear-gradient-5"/><linearGradient id="linear-gradient-25" x1="1940.14" y1="902.94" x2="1968.67" y2="857.23" xlink:href="#linear-gradient-6"/><linearGradient id="linear-gradient-26" x1="1965.82" y1="886.81" x2="1953.45" y2="860" xlink:href="#linear-gradient-6"/><linearGradient id="linear-gradient-27" x1="1892.46" y1="1015.92" x2="1911.7" y2="985.09" xlink:href="#linear-gradient-6"/><linearGradient id="linear-gradient-28" x1="1939.76" y1="883.39" x2="1974.31" y2="1040.66" xlink:href="#linear-gradient-5"/><linearGradient id="linear-gradient-29" x1="1578.32" y1="1248.87" x2="1608.5" y2="1248.87" xlink:href="#linear-gradient-17"/><linearGradient id="linear-gradient-30" x1="1682.79" y1="1196.99" x2="1702.74" y2="1196.99" xlink:href="#linear-gradient-17"/><linearGradient id="linear-gradient-31" x1="1593.05" y1="1247.4" x2="1604" y2="1270.08" gradientUnits="userSpaceOnUse"><stop offset="0" stop-color="#311944"/><stop offset="1" stop-color="#a03976"/></linearGradient><linearGradient id="linear-gradient-32" x1="1698.44" y1="1157.64" x2="1681.69" y2="1232.21" xlink:href="#linear-gradient-31"/><linearGradient id="linear-gradient-33" x1="1694.13" y1="1214.69" x2="1616.78" y2="1137.35" xlink:href="#linear-gradient-5"/><linearGradient id="linear-gradient-35" x1="1745.35" y1="1163.47" x2="1668" y2="1086.13" xlink:href="#linear-gradient-5"/><linearGradient id="linear-gradient-36" x1="1643.87" y1="921.4" x2="1601.07" y2="1053.4" gradientUnits="userSpaceOnUse"><stop offset="0" stop-color="#aa80f9"/><stop offset="1" stop-color="#6165d7"/></linearGradient><linearGradient id="linear-gradient-37" x1="1783.53" y1="1009.77" x2="1770.27" y2="996.51" xlink:href="#linear-gradient-31"/><linearGradient id="linear-gradient-38" x1="1700.4" y1="939.73" x2="1657.61" y2="1071.73" xlink:href="#linear-gradient-36"/><linearGradient id="linear-gradient-39" x1="1641.96" y1="920.79" x2="1599.17" y2="1052.79" xlink:href="#linear-gradient-36"/><linearGradient id="linear-gradient-40" x1="1587.94" y1="954.69" x2="1622.32" y2="897.97" xlink:href="#linear-gradient-31"/><linearGradient id="linear-gradient-41" x1="1585.51" y1="953.22" x2="1619.88" y2="896.5" xlink:href="#linear-gradient-31"/><linearGradient id="linear-gradient-42" x1="1586.13" y1="953.59" x2="1620.5" y2="896.87" xlink:href="#linear-gradient-31"/><linearGradient id="linear-gradient-43" x1="1830.52" y1="896.28" x2="1866.18" y2="1163.2" xlink:href="#linear-gradient-6"/><linearGradient id="linear-gradient-44" x1="630.24" y1="926.61" x2="1570.69" y2="1223.59" gradientUnits="userSpaceOnUse"><stop offset="0" stop-color="#444b8c"/><stop offset="1" stop-color="#26264f"/></linearGradient><linearGradient id="linear-gradient-45" x1="485.33" y1="697.91" x2="961.71" y2="697.91" gradientTransform="matrix(1, 0.02, -0.02, 1, -11.46, 8.18)" gradientUnits="userSpaceOnUse"><stop offset="0" stop-color="#ff9085"/><stop offset="1" stop-color="#fb6fbb"/></linearGradient><linearGradient id="linear-gradient-46" x1="1001.19" y1="945.57" x2="1469.1" y2="945.57" gradientTransform="matrix(1, 0, 0, 1, 0, 0)" xlink:href="#linear-gradient-45"/><linearGradient id="linear-gradient-47" x1="1215.22" y1="936.21" x2="1249.04" y2="936.21" xlink:href="#linear-gradient-19"/><linearGradient id="linear-gradient-48" x1="1110.13" y1="1386.92" x2="1167.32" y2="1440.9" gradientTransform="translate(-45.29 -33.45) rotate(-9.13)" xlink:href="#linear-gradient-5"/><linearGradient id="linear-gradient-49" x1="1210.98" y1="1145.48" x2="1267.62" y2="1123.4" xlink:href="#linear-gradient-17"/><linearGradient id="linear-gradient-51" x1="1176.73" y1="980.52" x2="1223.96" y2="1025.41" xlink:href="#linear-gradient-36"/><linearGradient id="linear-gradient-52" x1="837.51" y1="1519.68" x2="835.99" y2="1594.82" gradientTransform="translate(143.68 -117.23) rotate(-10.52)" xlink:href="#linear-gradient-5"/><linearGradient id="linear-gradient-53" x1="854.58" y1="1394.59" x2="877.63" y2="1472.68" gradientTransform="translate(143.68 -117.23) rotate(-10.52)" xlink:href="#linear-gradient-17"/><linearGradient id="linear-gradient-54" x1="1255.08" y1="1084.78" x2="1278.67" y2="1164.72" xlink:href="#linear-gradient-17"/><linearGradient id="linear-gradient-55" x1="1398.7" y1="976.04" x2="1528.65" y2="1058.38" gradientTransform="translate(-197.33 75.79) rotate(-1.73)" xlink:href="#linear-gradient-36"/><linearGradient id="linear-gradient-56" x1="-2048.86" y1="-1288.53" x2="-2056.04" y2="-1280.05" gradientTransform="matrix(-0.34, -0.94, -0.94, 0.34, -682.45, -476.18)" xlink:href="#linear-gradient-6"/><linearGradient id="linear-gradient-57" x1="-2072.92" y1="-1274.82" x2="-2033.45" y2="-1274.82" gradientTransform="matrix(-0.34, -0.94, -0.94, 0.34, -682.45, -476.18)" xlink:href="#linear-gradient-6"/><linearGradient id="linear-gradient-58" x1="-1782.45" y1="-972.36" x2="-1757.44" y2="-972.36" gradientTransform="matrix(0.83, 0.56, -0.56, 0.83, 2170.92, 2817.78)" xlink:href="#linear-gradient-31"/><linearGradient id="linear-gradient-59" x1="-1679.52" y1="1593.61" x2="-1677.12" y2="1529.86" gradientTransform="matrix(-0.93, 0.38, 0.38, 0.93, -906.65, 147.07)" gradientUnits="userSpaceOnUse"><stop offset="0" stop-color="#311944"/><stop offset="1" stop-color="#893976"/></linearGradient><linearGradient id="linear-gradient-60" x1="-1287.32" y1="1245.83" x2="-1288.6" y2="1209.31" gradientTransform="matrix(-0.98, 0.21, 0.21, 0.98, -274.94, 28.86)" xlink:href="#linear-gradient-31"/><linearGradient id="linear-gradient-61" x1="1395.74" y1="975.31" x2="1529.16" y2="1059.86" gradientTransform="translate(-197.33 75.79) rotate(-1.73)" xlink:href="#linear-gradient-36"/><linearGradient id="linear-gradient-62" x1="1263.22" y1="994.24" x2="1331.95" y2="1037.79" xlink:href="#linear-gradient-36"/><linearGradient id="linear-gradient-63" x1="964.71" y1="1257.73" x2="969.06" y2="1261.39" xlink:href="#linear-gradient-36"/><linearGradient id="linear-gradient-64" x1="967.53" y1="1266.04" x2="983.26" y2="1266.04" xlink:href="#linear-gradient-36"/><linearGradient id="linear-gradient-65" x1="972.1" y1="1266.25" x2="978.69" y2="1266.25" xlink:href="#linear-gradient-17"/><linearGradient id="linear-gradient-66" x1="1048.91" y1="1248.65" x2="1053.26" y2="1252.31" xlink:href="#linear-gradient-36"/><linearGradient id="linear-gradient-67" x1="1051.73" y1="1256.97" x2="1067.46" y2="1256.97" xlink:href="#linear-gradient-36"/><linearGradient id="linear-gradient-68" x1="1056.3" y1="1257.18" x2="1062.89" y2="1257.18" xlink:href="#linear-gradient-17"/><linearGradient id="linear-gradient-69" x1="1172.02" y1="1061.54" x2="1248.13" y2="1061.54" xlink:href="#linear-gradient-17"/><linearGradient id="linear-gradient-70" x1="1038.58" y1="1285.94" x2="1042.93" y2="1289.6" xlink:href="#linear-gradient-36"/><linearGradient id="linear-gradient-71" x1="1041.41" y1="1294.26" x2="1057.14" y2="1294.26" xlink:href="#linear-gradient-36"/><linearGradient id="linear-gradient-72" x1="1045.97" y1="1294.47" x2="1052.57" y2="1294.47" xlink:href="#linear-gradient-17"/><linearGradient id="linear-gradient-73" x1="1111.49" y1="1278.65" x2="1115.84" y2="1282.31" xlink:href="#linear-gradient-36"/><linearGradient id="linear-gradient-74" x1="1114.31" y1="1286.96" x2="1130.04" y2="1286.96" xlink:href="#linear-gradient-36"/><linearGradient id="linear-gradient-75" x1="1118.88" y1="1287.17" x2="1125.47" y2="1287.17" xlink:href="#linear-gradient-17"/><linearGradient id="linear-gradient-76" x1="1195.25" y1="1045.32" x2="1187.07" y2="1057.96" xlink:href="#linear-gradient-31"/><linearGradient id="linear-gradient-77" x1="987.8" y1="291.29" x2="1017.35" y2="291.29" xlink:href="#linear-gradient-5"/><linearGradient id="linear-gradient-78" x1="990.24" y1="282.66" x2="1004.15" y2="458.57" xlink:href="#linear-gradient-6"/><linearGradient id="linear-gradient-79" x1="1181.24" y1="-81.17" x2="1195.18" y2="95.04" gradientTransform="matrix(0.97, 0.23, -0.23, 0.97, -219.6, 92.45)" xlink:href="#linear-gradient-6"/><linearGradient id="linear-gradient-80" x1="1175.52" y1="-75.8" x2="1200.25" y2="-75.8" gradientTransform="matrix(0.97, 0.23, -0.23, 0.97, -219.6, 92.45)" xlink:href="#linear-gradient-5"/><linearGradient id="linear-gradient-81" x1="1192.85" y1="-84.03" x2="1170.84" y2="24.8" gradientTransform="matrix(0.97, 0.23, -0.23, 0.97, -219.6, 92.45)" xlink:href="#linear-gradient-5"/><linearGradient id="linear-gradient-82" x1="910.95" y1="359.92" x2="949.49" y2="457.33" xlink:href="#linear-gradient-5"/><linearGradient id="linear-gradient-83" x1="686.35" y1="373.59" x2="784.25" y2="373.59" xlink:href="#linear-gradient-36"/><linearGradient id="linear-gradient-84" x1="693.7" y1="400.31" x2="781.03" y2="400.31" xlink:href="#linear-gradient-17"/><linearGradient id="linear-gradient-85" x1="637.85" y1="345.22" x2="695.11" y2="402.02" xlink:href="#linear-gradient-17"/><linearGradient id="linear-gradient-86" x1="637.85" y1="345.22" x2="695.11" y2="402.02" xlink:href="#linear-gradient-17"/><linearGradient id="linear-gradient-87" x1="798.67" y1="314.23" x2="854.83" y2="434.92" xlink:href="#linear-gradient-36"/><linearGradient id="linear-gradient-89" x1="798.68" y1="314.23" x2="854.83" y2="434.92" xlink:href="#linear-gradient-36"/><linearGradient id="linear-gradient-90" x1="782.36" y1="384.84" x2="768.18" y2="274.61" xlink:href="#linear-gradient-6"/><linearGradient id="linear-gradient-91" x1="756.66" y1="337.23" x2="785.98" y2="276.76" gradientUnits="userSpaceOnUse"><stop offset="0" stop-color="#ffc444"/><stop offset="0.79" stop-color="#f68152"/><stop offset="1" stop-color="#f36f56"/></linearGradient><linearGradient id="linear-gradient-92" x1="742.26" y1="391.3" x2="763.83" y2="391.3" xlink:href="#linear-gradient-6"/><linearGradient id="linear-gradient-93" x1="778.58" y1="376.95" x2="846.14" y2="365.5" xlink:href="#linear-gradient-36"/><linearGradient id="linear-gradient-94" x1="496.59" y1="1236.39" x2="711.97" y2="1236.39" gradientUnits="userSpaceOnUse"><stop offset="0" stop-color="#fcb148"/><stop offset="0.05" stop-color="#fdba46"/><stop offset="0.14" stop-color="#ffc244"/><stop offset="0.32" stop-color="#ffc444"/><stop offset="0.48" stop-color="#fdb946"/><stop offset="0.78" stop-color="#f99c4d"/><stop offset="0.87" stop-color="#f8924f"/><stop offset="1" stop-color="#f8924f"/></linearGradient><linearGradient id="linear-gradient-95" x1="605.27" y1="1212.12" x2="616.62" y2="1307.18" gradientUnits="userSpaceOnUse"><stop offset="0" stop-color="#ffdb44"/><stop offset="1" stop-color="#feef06"/></linearGradient><linearGradient id="linear-gradient-96" x1="604.77" y1="1207.89" x2="608.26" y2="1237.08" xlink:href="#linear-gradient-95"/><linearGradient id="linear-gradient-97" x1="-1748.41" y1="330.55" x2="-1744.93" y2="359.64" gradientTransform="translate(-1140.35 1564.57) rotate(180)" gradientUnits="userSpaceOnUse"><stop offset="0" stop-color="#f36f56"/><stop offset="0.31" stop-color="#f99c4c"/><stop offset="0.55" stop-color="#fdb946"/><stop offset="0.68" stop-color="#ffc444"/><stop offset="0.8" stop-color="#ffc244"/><stop offset="0.87" stop-color="#feba46"/><stop offset="0.92" stop-color="#fcad49"/><stop offset="0.96" stop-color="#f99a4d"/><stop offset="1" stop-color="#f68252"/><stop offset="1" stop-color="#f57e53"/></linearGradient><linearGradient id="linear-gradient-98" x1="470.57" y1="1214.58" x2="685.94" y2="1214.58" xlink:href="#linear-gradient-94"/><linearGradient id="linear-gradient-99" x1="579.25" y1="1190.32" x2="590.6" y2="1285.37" xlink:href="#linear-gradient-95"/><linearGradient id="linear-gradient-100" x1="578.75" y1="1186.08" x2="582.24" y2="1215.27" xlink:href="#linear-gradient-95"/><linearGradient id="linear-gradient-101" x1="-1722.38" y1="352.36" x2="-1718.91" y2="381.45" xlink:href="#linear-gradient-97"/><linearGradient id="linear-gradient-102" x1="493.02" y1="1192.83" x2="708.4" y2="1192.83" xlink:href="#linear-gradient-94"/><linearGradient id="linear-gradient-103" x1="601.7" y1="1168.57" x2="613.05" y2="1263.62" xlink:href="#linear-gradient-95"/><linearGradient id="linear-gradient-104" x1="601.21" y1="1164.33" x2="604.69" y2="1193.52" xlink:href="#linear-gradient-95"/><linearGradient id="linear-gradient-105" x1="-1744.84" y1="374.1" x2="-1741.36" y2="403.19" xlink:href="#linear-gradient-97"/><linearGradient id="linear-gradient-106" x1="506.65" y1="1171.02" x2="722.02" y2="1171.02" xlink:href="#linear-gradient-94"/><linearGradient id="linear-gradient-107" x1="615.33" y1="1146.76" x2="626.68" y2="1241.82" xlink:href="#linear-gradient-95"/><linearGradient id="linear-gradient-108" x1="614.83" y1="1142.52" x2="618.32" y2="1171.72" xlink:href="#linear-gradient-95"/><linearGradient id="linear-gradient-109" x1="-1758.46" y1="395.91" x2="-1754.99" y2="425" xlink:href="#linear-gradient-97"/><linearGradient id="linear-gradient-110" x1="496.59" y1="1147.5" x2="711.97" y2="1147.5" xlink:href="#linear-gradient-94"/><linearGradient id="linear-gradient-111" x1="605.27" y1="1123.23" x2="616.62" y2="1218.29" xlink:href="#linear-gradient-95"/><linearGradient id="linear-gradient-112" x1="604.77" y1="1119" x2="608.26" y2="1148.19" xlink:href="#linear-gradient-95"/><linearGradient id="linear-gradient-113" x1="-1748.41" y1="419.44" x2="-1744.93" y2="448.53" xlink:href="#linear-gradient-97"/><linearGradient id="linear-gradient-114" x1="470.57" y1="1125.69" x2="685.94" y2="1125.69" xlink:href="#linear-gradient-94"/><linearGradient id="linear-gradient-115" x1="579.25" y1="1101.43" x2="590.6" y2="1196.48" xlink:href="#linear-gradient-95"/><linearGradient id="linear-gradient-116" x1="578.75" y1="1097.19" x2="582.24" y2="1126.38" xlink:href="#linear-gradient-95"/><linearGradient id="linear-gradient-117" x1="-1722.38" y1="441.25" x2="-1718.91" y2="470.34" xlink:href="#linear-gradient-97"/><linearGradient id="linear-gradient-118" x1="493.02" y1="1103.94" x2="708.4" y2="1103.94" xlink:href="#linear-gradient-94"/><linearGradient id="linear-gradient-119" x1="601.7" y1="1079.68" x2="613.05" y2="1174.74" xlink:href="#linear-gradient-95"/><linearGradient id="linear-gradient-120" x1="601.21" y1="1075.44" x2="604.69" y2="1104.64" xlink:href="#linear-gradient-95"/><linearGradient id="linear-gradient-121" x1="-1744.84" y1="462.99" x2="-1741.36" y2="492.08" xlink:href="#linear-gradient-97"/><linearGradient id="linear-gradient-122" x1="481.34" y1="1082.14" x2="696.72" y2="1082.14" xlink:href="#linear-gradient-94"/><linearGradient id="linear-gradient-123" x1="590.02" y1="1057.87" x2="601.38" y2="1152.93" xlink:href="#linear-gradient-95"/><linearGradient id="linear-gradient-124" x1="589.53" y1="1053.64" x2="593.01" y2="1082.83" xlink:href="#linear-gradient-95"/><linearGradient id="linear-gradient-125" x1="-1733.16" y1="484.8" x2="-1729.68" y2="513.89" xlink:href="#linear-gradient-97"/><linearGradient id="linear-gradient-126" x1="634.63" y1="317.49" x2="850.01" y2="317.49" gradientTransform="matrix(0.58, 0.81, -0.81, 0.58, 579.39, 375.63)" xlink:href="#linear-gradient-94"/><linearGradient id="linear-gradient-127" x1="743.31" y1="293.23" x2="754.66" y2="388.27" gradientTransform="matrix(0.58, 0.81, -0.81, 0.58, 579.39, 375.63)" xlink:href="#linear-gradient-95"/><linearGradient id="linear-gradient-128" x1="742.82" y1="288.99" x2="746.3" y2="318.18" gradientTransform="matrix(0.58, 0.81, -0.81, 0.58, 579.39, 375.63)" xlink:href="#linear-gradient-95"/><linearGradient id="linear-gradient-129" x1="-1885.88" y1="1248.99" x2="-1882.41" y2="1278.07" gradientTransform="matrix(-0.58, -0.81, 0.81, -0.58, -1355.82, 353.38)" xlink:href="#linear-gradient-97"/></defs><title>Asset 2</title><g class="cls-4"><g id="Layer_2" data-name="Layer 2"><g id="Illustration"><path class="cls-5" d="M495.74,1007.68c-149.22,14.81-479,48.69-479.13,94.08-.08,40.07,256.84,64.81,255.75,115.5-.79,36.76-136.42,47.13-136.13,74.25.51,47.15,424.8,70.26,573.38,78.38,66.69,3.64,157.62,7.68,274.22,3.6,164.14-5.76,246.22-8.64,302.88-36.37,49.31-24.14,90-57.23,157.15-55.92,51.38,1,88.55,21.55,103.12,28.87,173.62,87.21,569.51,18.26,589.88-90.75,9.18-49.13-63.12-78.67-50.68-145.73,12.82-69,98.57-86.92,91.66-116.32,0,0-7.63-32.54-320.39-37.42C1245.62,948.53,1035.91,954.09,495.74,1007.68Z"/><path class="cls-6" d="M302.61,1145.76c-55.07,20-55.3,31.77-55,34.38,2.16,18.81,85.37,31.4,154,28.87,32.34-1.19,63.67-5.82,64.62-1.37,1.3,6.08-57.45,14.54-57.75,28.87-.49,23.61,157.38,84.47,259.88,34.38,20.86-10.2,48.14-29.25,85.25-24.75,31.22,3.78,43.93,21.15,68.75,15.12,23.58-5.73,28.42-25.37,49.5-42.62,35.55-29.12,83.65-23.92,112.75-22C1097.31,1204,1273.89,1185,1459,1165c133.88-14.45,200.82-21.67,280.5-53.62,82.74-33.18,102.15-59.6,174.63-67.38,51.89-5.57,98.58,1.9,155.37-28.87,6.21-3.37,56.8-30.78,52.25-49.5-7.08-29.18-143.65-19.28-185.62-16.5C1846.2,955.09,613.35,1032.72,302.61,1145.76Z"/><path class="cls-1" d="M1648.9,983.8c-24.44-54-52.42-137.38-40.84-234.62,13.29-111.66,66.59-139.5,103.92-261.37,53.29-174-40.54-285.58,27.8-344.41,33.32-28.68,90-34.86,127.58-13.78,107.33,60.14,113.6,372.18-31.36,510-65.56,62.32-128.65,62.62-174.62,139C1620.75,846.14,1633.41,928,1648.9,983.8Z"/><g class="cls-7"><g class="cls-8"><path class="cls-9" d="M1622.5,844.21l-2-.29A429.21,429.21,0,0,1,1637,772.25c17.31-53.5,39.45-84.25,67.48-123.18,18.2-25.27,38.82-53.92,61.86-94.27,43.08-75.45,56.13-101.71,65.89-142.72A392.7,392.7,0,0,0,1830.86,227a382.81,382.81,0,0,0-64.45-134.39l1.65-1.24a385,385,0,0,1,64.8,135.11,394.7,394.7,0,0,1,1.37,186.12c-9.81,41.27-22.91,67.62-66.1,143.28-23.09,40.43-43.75,69.13-62,94.45-27.92,38.78-50,69.41-67.19,122.6A427.35,427.35,0,0,0,1622.5,844.21Z"/><path class="cls-9" d="M1841.62,355.77l-.21-1.69c-7.27-57.41-48.1-90.66-81.07-108.44a253.48,253.48,0,0,0-70.64-25.12l.33-2a255.32,255.32,0,0,1,71.29,25.33c33.07,17.84,73.94,51.05,81.9,108.28,5.86-4.39,29.24-23,48.78-54,20.66-32.75,41.14-86.48,21.36-156.4l2-.56c20,70.68-.74,125-21.65,158.13-22.64,35.88-50.41,55.32-50.68,55.51Z"/><path class="cls-9" d="M1832.75,542.55c-31,0-53.39-7.23-53.85-7.38l-.82-.28.13-.85c8.67-58.09-8.69-98.31-24.79-121.82-17.45-25.49-37.22-37.4-37.42-37.52l1-1.77c.8.47,79.6,48.59,63.33,160.54,9.53,2.87,99.2,27.52,165.43-36.64l1.43,1.48C1910.44,534,1866.51,542.55,1832.75,542.55Z"/><path class="cls-9" d="M1779.57,658c-43.59,0-67.66-17-68-17.3l-.59-.43.22-.71c18.81-60.09-26.37-150.25-26.82-151.15l1.83-.93c.46.9,45.65,91.08,27.18,152,6.53,4.29,65.52,39.61,163.05-8.53l.91,1.85C1838.41,652,1805.53,658,1779.57,658Z"/></g></g><path class="cls-2" d="M1595,963.83c-12.69-45.49-25-117.36,5.72-186.16,53.53-120,177.5-95.6,279.13-229,82-107.6,44.57-180.23,140.1-256.2,16-12.71,100.22-82.27,171.59-53.64,40.22,16.13,58.51,56.24,62,63.77,51.9,113.79-48.25,311.65-195.78,413.2-84.76,58.34-115.53,45.63-267.81,119.48A896.42,896.42,0,0,0,1595,963.83Z"/><g class="cls-10"><g class="cls-11"><path class="cls-9" d="M1587.74,1021l-2.06-.2c11-113.29,46.7-192.47,106-235.36,29-21,53.38-26.47,79.15-32.25,27.68-6.22,56.29-12.64,92-39.92,34.71-26.5,45.68-49.59,59.57-78.82,12.51-26.32,28.08-59.08,66.07-104.58,33.3-39.89,58.56-59.61,80.84-77,24.12-18.83,43.17-33.7,63.45-67.25,33.12-54.81,46.26-121.91,39-199.44l2.05-.19c7.26,78-6,145.5-39.33,200.7-20.47,33.87-39.65,48.84-63.94,67.8-22.2,17.33-47.37,37-80.52,76.7-37.83,45.3-53.33,77.93-65.79,104.14-14,29.49-25.08,52.77-60.19,79.58-36.09,27.55-64.93,34-92.82,40.29-25.55,5.74-49.69,11.16-78.39,31.91C1634.09,829.68,1598.7,908.37,1587.74,1021Z"/><path class="cls-9" d="M2059,462.46l.29-1.35c.34-1.6,33.33-160.59-30.11-217.9l1.38-1.53c61.16,55.25,34.12,202.78,31,218.51a301.29,301.29,0,0,0,178.13-76.83c37.86-34.06,55.82-66.94,56-67.27l1.81,1c-.17.33-18.31,33.52-56.43,67.82a303.31,303.31,0,0,1-180.71,77.46Z"/><path class="cls-9" d="M2049.52,593.94c-57,0-96.71-12.57-97.12-12.7l-.84-.28.14-.87c13.42-82.51-18.48-194.37-18.81-195.49l2-.57c.32,1.12,32.13,112.63,19,195.5,6.2,1.85,45.85,13,100.42,12.32s135.82-13.68,212.46-71.73l1.25,1.64c-77.12,58.42-158.81,71.48-213.76,72.15Z"/><path class="cls-9" d="M1983.48,789.42c-117,0-187.28-39.88-188.1-40.36l-.94-.55.59-.91c52.73-80.8,15.72-200.88,15.34-202.08l2-.62c.38,1.21,37.4,121.29-15,202.9,10.47,5.66,106.19,54.46,255.21,35l.26,2A535.82,535.82,0,0,1,1983.48,789.42Z"/></g></g><path class="cls-12" d="M1589.15,924.66a503,503,0,0,1,117.54-79c97-46.72,145.53-30.65,183.6-77.94,39.42-49,6.06-89.32,53.63-144.37,4-4.63,55.23-62.37,108.73-48.75,37.42,9.52,55.86,48.86,64.52,67.31,33.58,71.63,31.07,186.61-42.23,251.15-69.49,61.19-167.51,46.27-198.65,41.32-54.64-8.68-69.46-28-124.83-35.22C1684.13,890.42,1626.44,908.61,1589.15,924.66Z"/><path class="cls-13" d="M1001.19,1150.49l24.11,12.18a32.44,32.44,0,0,0,47.07-29v-22.22Z"/><path class="cls-14" d="M1602.38,340.69a9.23,9.23,0,0,1-9.18-8.35c-8.08-84.8-35.73-165.38-77.85-226.88-37.32-54.49-81.74-87-118.86-87h-.12c-135.2.26-163.48,310.66-163.74,313.79a9.23,9.23,0,1,1-18.4-1.58C1215.39,317.18,1244.34.3,1396.33,0h.16c43.86,0,92.72,34.63,134.09,95,43.86,64,72.63,147.7,81,235.56a9.23,9.23,0,0,1-8.31,10.06C1603,340.68,1602.67,340.69,1602.38,340.69Z"/><path class="cls-15" d="M1039.16,979.51l178,90.1L1325,738.71,1147.28,295.1l-50.38,12.35-76.44,637.11A34.56,34.56,0,0,0,1039.16,979.51Z"/><path class="cls-16" d="M1325,738.71,1147.28,295.1l-29.71,7.28a966.33,966.33,0,0,0,.49,143.47c11.91,151,51.46,193.07,32.3,298.44-15.93,87.61-50.73,99.5-47.69,158.44,3.31,64.2,48.09,118,101.32,160.23l13.14,6.65Z"/><polygon class="cls-17" points="1147.28 295.1 1817.48 329.07 2030.47 1004.07 1217.13 1069.61 1147.28 295.1"/><g class="cls-18"><path class="cls-19" d="M1817.48,329.07,1468,311.35c-5.9,8.64-13.71,22.7-15.17,40.64-8.6,106.13,226.6,140.48,247.67,270.75,16,99.17-82.67,213.6-170.75,264.59-92.8,53.71-155.68,26.51-218.44,86.14-27.58,26.2-44.37,59-54.36,92.93l773.55-62.33Z"/></g><path class="cls-20" d="M1352.85,355.86a9.24,9.24,0,0,1-9-7.12c-1.89-8-45.49-198,16-291.24,17.62-26.73,42.23-43,73.16-48.5,158.91-28,256.75,313.32,260.84,327.86a9.23,9.23,0,1,1-17.77,5c-1-3.4-97.27-339.84-239.86-314.67-26.1,4.61-46,17.84-61,40.48-57.14,86.66-13.87,275-13.43,276.86a9.23,9.23,0,0,1-6.88,11.1A9.62,9.62,0,0,1,1352.85,355.86Z"/><circle class="cls-21" cx="1352.91" cy="357.26" r="25.8" transform="translate(811.46 1647.54) rotate(-82.03)"/><circle class="cls-22" cx="1689.31" cy="354.86" r="25.79"/><path class="cls-6" d="M1868.77,653.87,1660.69,465a15.4,15.4,0,0,0-16.15-2.86l-111,45.13a15.39,15.39,0,0,0-6.52,23.51L1708.2,772.33a15.41,15.41,0,0,0,21.24,3.32l137.89-97.81A15.4,15.4,0,0,0,1868.77,653.87ZM1630.83,531.38c-7,4.71-18.06.55-24.68-9.29s-6.3-21.65.71-26.37,18.06-.55,24.68,9.3S1637.85,526.66,1630.83,531.38Z"/><path class="cls-23" d="M1868.77,651.29l-208.08-188.9a15.4,15.4,0,0,0-16.15-2.86l-111,45.13a15.4,15.4,0,0,0-6.52,23.52L1708.2,769.76a15.43,15.43,0,0,0,21.24,3.32l137.89-97.82A15.4,15.4,0,0,0,1868.77,651.29ZM1630.83,528.8c-7,4.71-18.06.55-24.68-9.29s-6.3-21.65.71-26.37,18.06-.55,24.68,9.3S1637.85,524.09,1630.83,528.8Z"/><path class="cls-24" d="M1587.59,482.88a2.07,2.07,0,0,1-1.88-1.21,126.32,126.32,0,0,0-28.79-40.46c-32.7-30.43-75-35.22-115.9-39.85s-79.36-9-102.44-39.3c-5.91-7.77-15.08-21.82-10-28.76,2-2.76,6-4,11.8-3.78a2.06,2.06,0,1,1-.18,4.12c-4.27-.19-7.15.53-8.29,2.1-2.39,3.28,1.62,12.85,10,23.82,22,28.91,59.71,33.18,99.62,37.7,41.57,4.71,84.55,9.58,118.25,40.93A130.43,130.43,0,0,1,1589.47,480a2.06,2.06,0,0,1-1.88,2.92Z"/><path class="cls-24" d="M1605.36,514.85a2.06,2.06,0,0,1-1.51-.66,2.08,2.08,0,0,1,.11-2.92c.14-.13,14.23-13.41,14.16-31.07,0-10.83-5.36-21.17-15.81-30.73-22.33-20.42-81.7-44.11-134.07-65-32-12.77-62.21-24.83-82.06-35.23-4.49-2.36-9.24-4.59-14.12-6.64a2.07,2.07,0,0,1,1.6-3.81c5,2.1,9.84,4.38,14.44,6.79,19.66,10.31,49.78,22.33,81.67,35.06,52.7,21,112.43,44.87,135.32,65.8,11.35,10.37,17.12,21.74,17.16,33.8,0,19.48-14.85,33.49-15.49,34.07A2,2,0,0,1,1605.36,514.85Z"/><path class="cls-9" d="M1868.77,651.29l-208.08-188.9a15.4,15.4,0,0,0-16.15-2.86l-9.89,4A129.11,129.11,0,0,0,1647,492.29c30.74,52.47,81.17,50.21,92.82,86.63,10.32,32.27-24.31,49.58-28.88,94.87-2.28,22.63,2.93,52.73,30.82,90.54l125.56-89.07A15.4,15.4,0,0,0,1868.77,651.29Z"/><path class="cls-6" d="M1682.06,587c11.39,17.55,9,32.1,0,38-9.56,6.21-23.29,1.56-33.52-14.19-9.72-15-10.24-30.77.49-37.74S1672.75,572.67,1682.06,587Zm-23,16.21c5.7,8.77,12,13.65,16.28,10.89s2.49-9.69-3.62-19.11c-5.53-8.52-11.55-14-16.09-11C1651.3,586.79,1653.63,594.82,1659.07,603.21Zm46.51,56.39L1685.3,549.48l7.92-5.14,20.19,110.17Zm44.31-67.13c11.4,17.55,9,32.11,0,38-9.47,6.15-23.2,1.49-33.52-14.19-9.72-15-10.24-30.78.48-37.74S1740.59,578.15,1749.89,592.47ZM1727,608.62c5.61,8.84,11.94,13.72,16.19,11s2.49-9.69-3.63-19.11c-5.53-8.52-11.44-14-16-11.09S1721.56,600.24,1727,608.62Z"/><path class="cls-6" d="M1709.94,720.51a8.25,8.25,0,0,1-4.28-15.3l100.2-60.83a8.25,8.25,0,0,1,8.56,14.11l-100.2,60.82A8.16,8.16,0,0,1,1709.94,720.51Z"/><path class="cls-3" d="M516.86,1172.93c11.39-45.26,21.39-113.82-1.2-187.57-25.95-84.67-71.15-98.79-117.15-188-65.67-127.36-8.58-227-69.79-263-29.84-17.56-74.6-14.42-100.81,7.19C153.15,603.14,192,845.86,323.64,932.35c59.54,39.11,108.48,30.52,154.81,83.3C519.4,1062.29,521.06,1127.53,516.86,1172.93Z"/><g class="cls-25"><g class="cls-8"><path class="cls-9" d="M517.56,1061.11a336.19,336.19,0,0,0-22.73-52.94c-20.78-38.79-42.15-59.43-69.2-85.56-17.68-17.07-37.72-36.42-61.28-64.54-44.09-52.6-57.94-71.2-71.34-101.84a311,311,0,0,1-25-144.55,303,303,0,0,1,31.32-113.87l1.84.92a301.36,301.36,0,0,0-31.11,113.1A309.05,309.05,0,0,0,294.9,755.41c13.3,30.39,27.09,48.91,71,101.33,23.49,28,43.49,47.35,61.13,64.39,27.19,26.25,48.66,47,69.59,86.07a338,338,0,0,1,22.87,53.26Z"/><path class="cls-9" d="M279.77,713.51l-1.54-.7c-1-.44-96.83-45.32-86.11-155.67l2,.2c-9.83,101.21,71.11,146.58,83.37,152.84C274.3,622.9,376.68,585.7,377.73,585.33l.68,1.94c-1,.37-103.33,37.57-98.73,124.55Z"/><path class="cls-9" d="M286.48,859.3a121.87,121.87,0,0,1-69-20.68l1.15-1.72c59.8,40.11,125.18,9.24,133,5.31-28.2-84.52,26.17-132.87,26.72-133.35l1.35,1.55c-.54.48-54.22,48.29-25.83,132l.28.82-.76.42C352.93,843.87,324,859.3,286.48,859.3Z"/><path class="cls-9" d="M344.3,941.16c-15.44,0-33.31-2.25-53.69-8.11l.57-2c45.39,13,77.71,7.84,96.83,1.18,18.09-6.3,28.09-15,30.4-17.23-22.76-44.7-.39-120.84-.16-121.61l2,.59c-.22.77-22.58,76.89.37,120.75l.34.65-.51.53C420.11,916.26,395.63,941.16,344.3,941.16Z"/></g></g><path class="cls-2" d="M618.28,1162.57c5-36.87,6.74-94.26-24.65-144.6-54.75-87.83-148.82-55.35-242.56-148.4C275.46,794.52,296.77,733.8,214,684.89c-13.85-8.18-87.1-53.32-139.67-23.25-29.63,17-39.55,50.22-41.41,56.46C4.77,812.5,104.34,956,230.43,1019.23c72.44,36.32,95.07,23.07,221.87,64.18A705.94,705.94,0,0,1,618.28,1162.57Z"/><g class="cls-26"><g class="cls-8"><path class="cls-9" d="M630,1206.46c-20.75-86.65-56.84-144.15-107.27-170.92-24.6-13.06-44-14.67-64.53-16.38-22.47-1.86-45.69-3.79-76.87-21.39-30.34-17.14-41.51-34.12-55.65-55.63-12.55-19.09-28.18-42.85-62.57-74.07-30.16-27.38-51.91-40-71.1-51.08-21-12.17-37.62-21.78-57.29-46-32-39.48-49.69-90.76-52.48-152.42l2.06-.09c2.77,61.2,20.27,112.08,52,151.21,19.43,24,35.88,33.48,56.72,45.54,19.28,11.16,41.13,23.81,71.44,51.33,34.59,31.4,50.29,55.28,62.91,74.47,14,21.27,25,38.07,54.95,55,30.78,17.38,53.78,19.29,76,21.14,20.75,1.72,40.35,3.35,65.32,16.61,51,27.06,87.42,85,108.32,172.25Z"/><path class="cls-9" d="M185.83,822.47C66.1,822.47.67,735.2,0,734.29l1.66-1.22c.7.94,70.46,94,197.79,87-4.57-13.3-40.85-124.3.65-173.76l1.58,1.33c-43.2,51.48-.28,171.82.16,173l.47,1.3-1.38.08Q193.25,822.48,185.83,822.47Z"/><path class="cls-9" d="M182.63,926.33A279.29,279.29,0,0,1,45.27,890.84l1-1.81c66,37,130.71,38.29,173.37,32.91,42.13-5.32,71.63-18.06,76.78-20.4C277.27,838.28,290,748,290.11,747.06l2,.29c-.13.91-12.88,91.6,6.51,154.45l.26.85-.8.38c-.31.15-31.58,15.06-78.14,21A298.7,298.7,0,0,1,182.63,926.33Z"/><path class="cls-9" d="M241.75,1072.78v-2.06c117.41-1,186.54-48.64,195-54.79C387.13,957.84,403,860.26,403.14,859.27l2,.35c-.16,1-16,98.56,33.82,155.8l.71.82-.85.67C438.15,1017.46,367.33,1071.74,241.75,1072.78Z"/></g></g><path class="cls-27" d="M566.12,1189.64a396.31,396.31,0,0,0-87.6-69c-73.39-42.48-112.46-32.74-139.54-72.15-28-40.79.57-70.51-33.51-116.58C302.6,928,265.81,879.62,223,887.12c-30,5.25-46.79,35-54.69,49-30.64,54.25-35.53,144.7,18.19,199.75,50.93,52.2,128.8,46.33,153.55,44.3,43.43-3.57,56.22-17.85,100.13-20.22C493.58,1157.09,537.8,1174.81,566.12,1189.64Z"/><path class="cls-6" d="M1798.3,1188.89c-20.38,9.55-18.54,13.69-38.5,22-34.2,14.24-59.65,10.42-92.12,11-63,1.14-133,18.51-133.38,33-.25,8.67,24.38,17.74,44.69,19.94,30,3.24,52.31-8.25,67.37-14.44,64.85-26.64,80.51,9.67,155.56-11,56.68-15.6,56-38.59,120.82-52.94,45.94-10.16,80.94-6.29,81.13-10.31.2-4.65-46.51-11.72-90.76-13.06C1871.66,1171.82,1836.21,1171.13,1798.3,1188.89Z"/><polygon class="cls-28" points="1866.21 1181.62 1865.52 1188.61 1861.54 1187.76 1860.8 1181.62 1866.21 1181.62"/><path class="cls-29" d="M1865.72,1186.55a8,8,0,0,1,1.18,1.31c.76,1.07,1.76,3.06,1.42,4.39-.41,1.54-2.6,2-7.32,3.14-9.61,2.32-12.64,3.32-13.24,2.21-.27-.5.09-1.15.43-1.79,1.6-3,4.56-2.28,8.33-5.08,2.51-1.85,2.51-3.12,4.8-3.92A8.64,8.64,0,0,1,1865.72,1186.55Z"/><path class="cls-30" d="M1899.64,1010.85c-11.17,11.24-39.92,43.18-47.8,93.47a168.93,168.93,0,0,0,6.7,79.23c2.57.85,6.11,1.55,8.26-.24,1.68-1.4,1.82-3.78,1.88-4.57.89-11.73,12.93-47.36,16.78-58.75,3.16-9.36,6.26-15.61,10.72-24.61,23-46.36,48.52-61.31,43.59-73.76C1937.46,1015.77,1928.34,1010.29,1899.64,1010.85Z"/><path class="cls-31" d="M1939.77,1021.62c-2-5.19-9.5-10.08-31.2-10.73,3.17,23.24-1.25,38.93-6.55,49.43-9.63,19.1-21.57,20.07-29.56,41.94-8.57,23.45-1.58,40.8-11.69,46.75-2.76,1.62-6.08,2-9.67,1.41a172.41,172.41,0,0,0,7.44,33.13c2.57.85,6.11,1.55,8.26-.24,1.68-1.4,1.82-3.78,1.88-4.57.89-11.73,12.93-47.36,16.78-58.75,3.16-9.36,6.26-15.61,10.72-24.61C1919.18,1049,1944.7,1034.07,1939.77,1021.62Z"/><path class="cls-32" d="M1955.23,877.82c-.65,1-.79,1.61-1.49,1.85-2.85,1-9.49-6-10.2-13.71-.08-.92-.59-7.42,3.17-10,1.72-1.16,3.25-.77,6.85-.74,9.7.1,10.85-2.59,15.17-1.29,6.17,1.85,10.9,9.44,9.26,12.95-.75,1.59-2.16,1-10.29,3.83C1958.28,874,1956.27,876.17,1955.23,877.82Z"/><path class="cls-33" d="M1982.75,1157.71c.2.4,7.56,2.2,7.56,2.2l2.34-4-8.86-4.54Z"/><path class="cls-34" d="M1990.32,1154.29a9.69,9.69,0,0,1,1.73.4c.62.22,2.46.84,3,1.88.67,1.21-.45,2.81-1.75,5.12-3.93,6.94-4.45,11.11-6.5,11a1.34,1.34,0,0,1-.9-.36c-1.06-1.11,1.39-3.71,1.79-8.25.19-2.13-.29-2.32,0-4.21A12.49,12.49,0,0,1,1990.32,1154.29Z"/><path class="cls-35" d="M1925.56,1007.15c-11.24,32.84-12.06,59.94-11.16,76.89.92,17.26,1.76,30.23,10,43.31,17,27,51.09,31.65,59.64,32.57l3.61-11.17c-13.27-7.89-29.51-20.7-34.89-40.26-10.45-38,28-72.48,14.49-92.14C1963,1010.17,1952.77,1004.21,1925.56,1007.15Z"/><path class="cls-36" d="M1894.64,1018.15c5.68-50.25,2.24-83.41-2.58-105.3-1.24-5.61-3.74-15.8,1.71-23,13.25-17.56,60.79-.91,64.65.48,15.07,5.42,31,11.13,40,24.09,17.41,24.91,6.07,71.64-30.75,112.24a104.25,104.25,0,0,1-73-8.48Z"/><g class="cls-18"><path class="cls-37" d="M1995.07,910.24c-27.56,5.54-36.68,14.1-38.9,22-3.31,11.77,7.5,25.87-1.55,39.19-6.07,8.92-16.76,11.19-17.53,11.34-8,1.57-13.48-1.34-22.69-4.12a119.38,119.38,0,0,0-16.86-3.75c-.21,12.79-1.08,27.12-2.9,43.22a104.25,104.25,0,0,0,73,8.48c36.82-40.6,48.16-87.33,30.75-112.24A38.78,38.78,0,0,0,1995.07,910.24Z"/></g><path class="cls-38" d="M1953.89,876.14l-2.72,4.66A8.6,8.6,0,0,1,1943,885l-14.09-1.27a1.82,1.82,0,0,0-1.81,1c-1.72,3.55-5.7,14.48,8.31,17.8,12.62,3,26.25-2.28,32.24-5.08a1.83,1.83,0,0,0,.1-3.26l-3.11-1.71a7.67,7.67,0,0,1-3.7-8.73l1.3-4.77a1.83,1.83,0,0,0-1.25-2.24l-5-1.47A1.84,1.84,0,0,0,1953.89,876.14Z"/><path class="cls-39" d="M1952.91,877.13s3.5,7.19,10.38,6.71c6.16-.42,7-15.77,3-18.69a8.17,8.17,0,0,0-6.23-.91c-1.5.43-7.24,3.2-6.66,8.5-1.18-1.19-2.59-1.64-3.59-1.16a2,2,0,0,0-.82.8C1948.18,874,1949.63,876,1952.91,877.13Z"/><path class="cls-9" d="M1908.74,897.6a7.84,7.84,0,0,0-3.36-1.74l-96.2-22.42a43.12,43.12,0,0,0-13.35-1l-133.51,11.1a7.8,7.8,0,0,0-4,1.48l112.75,31.09Z"/><path class="cls-6" d="M1658.35,885a7.85,7.85,0,0,0-3.23,6.34v125.46a10.18,10.18,0,0,0,7.17,9.72l104.64,32.26a17,17,0,0,0,4.17.74V916.13Z"/><path class="cls-23" d="M1908.74,897.6,1771.1,916.13v143.43a17.13,17.13,0,0,0,4.28-.31l129.77-26a7.71,7.71,0,0,0,6.19-7.56V903.37A7.7,7.7,0,0,0,1908.74,897.6Z"/><path class="cls-40" d="M1729.26,1000.31c5.14-28.3,26.57-49.73,19.32-57.86-4.25-4.78-12.57,1.57-30,.32-5.37-.39-36-3.24-46.75-24.07-4.55-8.77-5-19.57-1.78-30.44L1658.35,885a7.85,7.85,0,0,0-3.23,6.34v125.46a10.18,10.18,0,0,0,7.17,9.72l73.66,22.71C1727.33,1028.58,1727.07,1012.39,1729.26,1000.31Z"/><path class="cls-41" d="M1909.46,1008.07a24.71,24.71,0,0,1-3.79-4.3,25.51,25.51,0,0,1-3.78-8.42,4,4,0,0,0-1.54,1.37c-1.06,1.68-.65,4.22,1,6.36a3.43,3.43,0,0,1-.86,2.41c-.83.8-2.41,1.15-9.11-.69-5.06-1.38-6.43-2.29-7.22-1.54-1.1,1-.1,4.35,1.72,6.35,2.87,3.17,7.43,2.66,8.08,2.58a7.71,7.71,0,0,1-5.33.69c-1.38-.38-2.4-1.2-2.75-.86s.72,2.36.86,2.58c2.41,3.79,14.52,2.69,21.65,1.72C1908.77,1013.57,1909.11,1010.82,1909.46,1008.07Z"/><path class="cls-42" d="M1909.59,1005.32a17.71,17.71,0,0,0-2.84,7.69c-.11,1.15-.3,4.47-.3,4.47s44.93,14,74.77-.25c19.77-9.47,37.55-33.6,36.3-61.41-1.38-31-25.65-49-28.94-51.37a67.61,67.61,0,0,0-18.49,26.62c-9.55,26,4.25,44-4.52,58.93C1960.36,998.84,1946.75,1007.32,1909.59,1005.32Z"/><path class="cls-43" d="M1582.43,1242.75c-3.5,3.54-4.92,7.33-3.65,9.55.88,1.54,2.82,1.94,5,2.35,3.36.64,6.87.47,14.08-1.56,6.73-1.9,10.68-3,10.69-4.64s-3.46-2.69-6.5-3.72a38,38,0,0,0-10.64-2Z"/><path class="cls-44" d="M1687.06,1185.44c-1.57.68-3.59,1.89-4.13,3.87-.86,3.13,2.49,6.37,7.85,11.42,4,3.78,9.45,8.9,11.34,7.61,1.16-.79.47-3.63-.16-6.28a35.42,35.42,0,0,0-6.66-13.51Z"/><path class="cls-45" d="M1590.11,1235l-7.53,8.35a1.56,1.56,0,0,0,.72,2.55,11.58,11.58,0,0,0,6.07.24,2.93,2.93,0,0,0,1.22-.75l7.52-7.35Z"/><path class="cls-46" d="M1691.24,1180.4l-4.06,5.85a1.7,1.7,0,0,0,.58,2.46,15.7,15.7,0,0,0,2,.93,3.08,3.08,0,0,0,3.34-.84l4.41-5Z"/><path class="cls-47" d="M1618.26,1057.75a142,142,0,0,1,11.35,34.29c1.19,6.13,6.74,37-5.2,74.17a158.46,158.46,0,0,1-42.5,66.85,28.59,28.59,0,0,0,6.45,4.13,29.08,29.08,0,0,0,11.06,2.67c33.28-23.76,49.42-50.67,56.74-65.32,24.72-49.42,18.52-97.93,7.71-118.44-3.54-6.74-7.55-10.39-12.09-12C1637.21,1038.88,1620.32,1055.66,1618.26,1057.75Z"/><path class="cls-48" d="M1663.87,1056.1c-3.54-6.74-7.55-10.39-12.09-12-14.57-5.21-31.46,11.57-33.52,13.66a142.56,142.56,0,0,1,11.22,33.69c10.18,2.39,24.39,8.07,31.32,21.48,11.21,21.71-4.9,47.72-8.25,53.11-7.36,11.88-11.81,10.77-22.69,27.85-8.21,12.9-8.83,18.51-16,24.75-8.4,7.33-18.89,9.47-27.37,9.94-1.66,1.69-3.21,3.19-4.6,4.49a28.59,28.59,0,0,0,6.45,4.13,29.08,29.08,0,0,0,11.06,2.67c33.28-23.76,49.42-50.67,56.74-65.32C1680.88,1125.12,1674.68,1076.61,1663.87,1056.1Z"/><path class="cls-49" d="M1637.08,1056a57.71,57.71,0,0,0,10.06,14.43c13.06,13.62,25.27,12.34,39.11,23.55,1.71,1.39,14,11.55,18.49,26.38,8.71,28.54-16.61,56.69-19.41,59.72a30.48,30.48,0,0,0,7.44,5.08,30.83,30.83,0,0,0,8,2.58c36.31-33.17,54-73.37,42-99.49-6.58-14.24-22.18-24.6-33.71-32.25a150.47,150.47,0,0,0-48.52-21Z"/><path class="cls-50" d="M1658.74,980.24c.55,16-3.17,24.37,2,37.47a51.29,51.29,0,0,0,14.66,19.9,62.47,62.47,0,0,1-56.23,33.72,125.92,125.92,0,0,1-45.49-39.11c-10-14.26-21.09-29.92-18.17-49.88,3.71-25.35,27.21-38.89,33.87-42.73,4.38-2.53,34.66-20,53.16-7.16C1657.46,942.77,1658.33,968.23,1658.74,980.24Z"/><path class="cls-51" d="M1759.93,998.45a11.1,11.1,0,0,1,3.4-5.54c1.23-1.24,1.48-1,2.29-2.06,2-2.56,1.53-5.2,2.3-5.29s1.86,1.83,1.78,3.79c-.09,2.2-1.69,2.86-1.39,4.08.43,1.71,4.23,3,7.61,2.32,3.91-.74,5.81-3.9,7.34-3.1,1.11.58,1,2.66,1,2.84-.17,3.89-5.36,8-10.44,8.51-2.92.3-4-.75-7.47.13-2.3.58-3.1,1.37-4.26.9C1760.23,1004.25,1759.47,1000.93,1759.93,998.45Z"/><path class="cls-52" d="M1760.49,997.08c-31.26,2.16-49.93-6-61.19-13.75-25.53-17.66-30.54-45.73-60.15-53.28-5.4-1.38-14.81-3.78-19.94,1-10.67,10,1.91,46.59,24.06,69.09,4.89,5,22.52,22.35,51.6,26.28,37.28,5,64-16,68.64-19.77a5.9,5.9,0,0,0,1.15-6A6.16,6.16,0,0,0,1760.49,997.08Z"/><path class="cls-53" d="M1605.8,1046.24c-8.8-8.34-4.63-13.51-15.47-30.25-11-17.06-19-17.38-24.06-28.88-2.63-6-4.25-14.49-1.35-26.77a48.52,48.52,0,0,0-9.37,22c-2.92,20,8.12,35.62,18.17,49.88a125.92,125.92,0,0,0,45.49,39.11,63.32,63.32,0,0,0,35.12-10.29,62.14,62.14,0,0,0,13-11.47,58.1,58.1,0,0,1-15.82,6C1648.58,1056.15,1621.93,1061.52,1605.8,1046.24Z"/><path class="cls-54" d="M1597.73,922.24l-2.55,8.61a13.73,13.73,0,0,1-4.73,6.95l-6.75,5.29s20.61-3.46,30.46-13.06l-6-1.9a1.52,1.52,0,0,1-1.07-1.45v-6.33Z"/><path class="cls-55" d="M1605.14,926.59c1-.22,8.09.95,10.12-2.47,2.74-4.64,0-12.06-.27-13.21-1.15-4.8-1.58-5.52-2.47-6.54l-1.26-1.33-.16-.12a18,18,0,0,0-4.85-1.61c-2.26-.11-6.84,8-9.47,20.43-.21.44-.43.89-.64,1.35C1595.6,924.27,1605.07,927,1605.14,926.59Z"/><path class="cls-24" d="M1616.61,900.73c-1,3.8-3.9,7.39-5,7.8a6.36,6.36,0,0,0-1.78,1.14,2.31,2.31,0,0,0-.34.39c-1.47,2.18,1.59,6,.57,6.89-.74.64-3.06-1.09-3.55-.5s1.35,2.44.82,3.11c-.4.5-1.59-.37-2.66.28-.53.33-.5.71-1.3,1.92a12.18,12.18,0,0,1-1.41,1.81c-1.92,1.89-5.86,1.71-6.34.63-.13-.31.1-.47.12-1.36a7.17,7.17,0,0,0-.29-1.87c-.43-1.48-2-2.9-3.56-4.75-2.81-3.43-3.18-5.81-3.28-6.61,0-.28,0-.49,0-.65-.15-3,.94-7.16,2.88-9.36,3.24-3.68,7.47-.4,12.5-3.56,5.79-3.66,4.88-11,7.52-11.09C1614.37,884.86,1618.51,893.7,1616.61,900.73Z"/><path class="cls-56" d="M1608.94,915.69c-.59-1.53-2.55-.76-3,.9s.69,3.8,2.34,3.89S1609.73,917.75,1608.94,915.69Z"/><path class="cls-57" d="M1834.45,950.17c0,19.34-9.83,31.09-20.62,32.92-11.41,1.92-20.45-7.17-20.45-24.69,0-16.66,8.23-30.58,21-32.58S1834.46,934.38,1834.45,950.17Zm-28,5.54c0,9.73,2.65,16.3,7.72,15.46s7.35-7.49,7.35-17.91c0-9.42-2.06-16.37-7.46-15.51C1808.89,938.57,1806.46,946.4,1806.46,955.71Zm9.61,58.23,37.77-91.11a6.37,6.37,0,0,1,4.75-3.88l2.81-.43c3.32-.52,5.53,2.64,4.16,6l-38.08,91.87a6.65,6.65,0,0,1-4.81,4l-1.77.32C1817.05,1021.34,1814.49,1017.78,1816.07,1013.94Zm71-34.38c0,19.09-9.6,30.75-20.12,32.62-11,2-19.82-6.95-19.92-24.21,0-16.45,8-30.24,20.53-32.3S1887.09,964,1887.07,979.56Zm-27.17,5.64c-.12,9.62,2.46,16.09,7.4,15.22s7.17-7.44,7.18-17.72c0-9.3-1.88-16.16-7.15-15.28S1859.91,976,1859.9,985.2Z"/><path class="cls-58" d="M1449.9,1090.74c0,16.87-12,31.39-26.67,32.26l-1035.6,63.26c-19.62,1.16-41.77-15.44-41.77-35V426.47c0-19.62,22.68-36.11,42.3-35.29l1035.07,44.3c14.7.61,26.67,14.91,26.67,31.79Z"/><path class="cls-59" d="M1469.1,1091.92c0,17-12,31.55-26.8,32.42L395.64,1186.39a33.55,33.55,0,0,1-35.92-33.71V424.44a34.27,34.27,0,0,1,35.92-34.35L1442.3,433.5c14.77.61,26.8,15,26.8,31.94Z"/><polygon class="cls-60" points="1469.1 921.2 359.72 978.11 359.72 1111.49 1469.1 1046.37 1469.1 921.2"/><g class="cls-61"><path class="cls-62" d="M687.13,630.91c-1.25,82.77-53,125.78-110.64,125.56C513.7,756.22,463.36,708.08,464.56,629c1.14-75.16,48.49-128.7,118.84-123.45C651.66,510.68,688.16,563.37,687.13,630.91Zm-149.06-1.58c-.65,43.17,13.47,74.55,41.07,75.06,26.57.5,39.81-26.57,40.49-71.86.62-40.95-9.88-73.26-38.89-75C552.52,555.84,538.69,588.06,538.07,629.33ZM596.34,895.4l200-362.08a20.24,20.24,0,0,1,35.48,19.49L634,914.79a20.24,20.24,0,0,1-16.86,10.52l-2.21.1A20.25,20.25,0,0,1,596.34,895.4Zm342.18-102C937.36,870,892.93,912,843.62,914.12c-53,2.33-95.8-40-95.27-112.8,1-69.28,41.41-120.77,101.44-119.16C908.21,683.73,939.47,730.8,938.52,793.36Zm-127,5c-1.14,39.86,10.88,68.22,34.45,67.53,22.71-.66,34.07-26.23,34.71-68.13.57-37.87-7.86-67.24-32.66-67.55C823.37,730,812.08,760.3,811.5,798.4Z"/></g><path class="cls-9" d="M696.79,627.06c-1.25,82.76-53,125.77-110.64,125.55-62.8-.24-113.13-48.38-111.93-127.43C475.36,550,522.7,496.47,593.06,501.73,661.32,506.83,697.81,559.51,696.79,627.06Zm-149.06-1.59c-.66,43.18,13.47,74.56,41.07,75.07,26.57.49,39.81-26.57,40.49-71.87.62-40.95-9.88-73.25-38.89-75C562.18,552,548.35,584.2,547.73,625.47ZM606,891.55,806,529.47A20.24,20.24,0,0,1,841.45,549l-197.77,362a20.23,20.23,0,0,1-16.86,10.51l-2.21.1A20.23,20.23,0,0,1,606,891.55Zm342.18-102c-1.16,76.65-45.59,118.6-94.9,120.76-53,2.33-95.81-39.95-95.27-112.8,1-69.28,41.41-120.78,101.44-119.16C917.87,679.87,949.13,727,948.18,789.51Zm-127,5C820,834.41,832,862.77,855.61,862.08c22.71-.67,34.07-26.24,34.7-68.13.58-37.87-7.86-67.25-32.65-67.55C833,726.1,821.74,756.45,821.16,794.54Z"/><path class="cls-63" d="M1442.3,433.5,407.69,390.59c46.7,138.29,113.57,200.23,171,230.55,109.35,57.73,187.78,2.6,281.52,77.34,96.16,76.68,59.56,171.34,160.86,235.12,76.14,47.93,125.22,12.35,204.18,55.68,58.49,32.1,95,86.46,118.4,140.91l98.64-5.85c14.77-.87,26.8-15.46,26.8-32.42V465.44C1469.1,448.48,1457.07,434.11,1442.3,433.5Z"/><path class="cls-64" d="M1454.53,764.93,1429.29,741l-24,25.25-25.24-24-23.95,25.25-25.25-24-24,25.25-25.25-24-24,25.25-25.24-24-24,25.25-25.24-23.95-24,25.24-25.24-23.95L1110.15,774l-25.25-24-24,25.24-32.26-30.6V1122.8s-1.32,21.66-27.5,27.36l446.48-32.74a36.55,36.55,0,0,0,14.15-4,35.09,35.09,0,0,0,7.28-21.47V749.58Z"/><path class="cls-9" d="M1498.21,781,1473,757l-24,25.25-25.24-24-24,25.25-25.24-23.95-24,25.24-25.25-24-23.95,25.24-25.25-23.95-24,25.24L1227,763.48l-24,25.24-25.24-24-24,25.24-25.24-24-23.95,25.24-32.26-30.6v378.14s-1.32,21.66-27.5,27.36l446.48-32.73a36.72,36.72,0,0,0,34-36.62V752.39Z"/><path class="cls-23" d="M1474.76,952.45l-55.21,2.49a6.94,6.94,0,0,0-6.64,6.94v25.34a7,7,0,0,0,7.34,6.94l55.22-3.11a7,7,0,0,0,6.56-6.94V959.39A7,7,0,0,0,1474.76,952.45Z"/><path class="cls-23" d="M1474.68,1001.42l-55.21,3.11a7,7,0,0,0-6.56,7v26.46a7,7,0,0,0,7.4,6.93l55.21-3.52a7,7,0,0,0,6.51-6.94v-26.05A7,7,0,0,0,1474.68,1001.42Z"/><path class="cls-23" d="M1482,882.2V836.86a7,7,0,0,0-7.2-7l-55.22,2a7,7,0,0,0-6.7,7v45.84a7,7,0,0,0,7.27,6.95l55.21-2.49A7,7,0,0,0,1482,882.2Z"/><path class="cls-23" d="M1360,957.62l-224.82,10.14a6.94,6.94,0,0,0-6.64,6.94v28.55a7,7,0,0,0,7.34,6.94l224.83-12.67a7,7,0,0,0,6.56-6.94v-26A7,7,0,0,0,1360,957.62Z"/><path class="cls-23" d="M1360,1007.89l-224.83,12.67a7,7,0,0,0-6.56,6.94v28.59a7,7,0,0,0,7.4,6.94l224.82-14.36a7,7,0,0,0,6.51-6.93v-26.91A7,7,0,0,0,1360,1007.89Z"/><path class="cls-23" d="M1367.31,887.38V841a7,7,0,0,0-7.2-7l-224.83,8.1a6.94,6.94,0,0,0-6.7,6.94v48.43a7,7,0,0,0,7.27,7l224.82-10.14A7,7,0,0,0,1367.31,887.38Z"/><path class="cls-65" d="M1239.45,947.31a17.64,17.64,0,0,0,6.16-5.1c2.24-3,4.62-8.22,2.76-10.4-.89-1-2.11-.63-4.67-1.07-5.33-.9-6.77-3.87-10.2-5.09-7.53-2.68-18.84,5.16-18.26,9.13.24,1.65,2.55,2.64,6.8,4.46s6.11,1.63,9.77,3.19A28,28,0,0,1,1239.45,947.31Z"/><path class="cls-6" d="M1327.27,1232.57c-16.24-6-32.22.85-40.78,4.53a56.93,56.93,0,0,0-8,4.22c-38.59,23.91-153.45,4.59-153.45,4.59-91.45-15.38-190.82-.68-194.84,20.39-2.58,13.52,33.89,30.76,45.8,36.39,46.41,21.94,90.84,17.17,121.85,13.45,21.63-2.59,41.23-8.14,80.43-19.25,73.65-20.87,73.71-29.34,117.29-36,25.65-3.92,48.44-4.49,49.85-12.46C1346.44,1242.55,1335,1235.42,1327.27,1232.57Z"/><path class="cls-66" d="M1310.1,1182.33l.74-1.27a1.28,1.28,0,0,1,1.93.84c.62,1.63,4.15,10.14,4.34,14-.93,2.31-3.55.35-4.09-1.22s-2.41-7.39-2.41-7.39Z"/><path class="cls-67" d="M1301.77,1188.41c1.1,0,2.19,0,3.29-.06q3-.13,6-.44l-1-6.32c-1-.39-2-.79-3-1.18l-1.48-.61-1.39-.58c-.67-.28-1.31-.57-2-.85l-.78-.34-2.22-1-.37-.17c-.79-.37-1.55-.75-2.31-1.12l-.16-.08c-.8-.39-1.57-.79-2.32-1.18l0,0c-1.54-.8-3-1.61-4.38-2.42-17.12-10-22.78-20.16-24.52-28.15-4.91-22.48,19.12-36.91,12.91-61.29-4.68-18.36-24.42-34.09-36.58-30.42-13.73,4.14-15.88,30.75-17.21,47.13-1.49,18.44-3.15,39,8.65,57.39,11.17,17.43,31.34,28.15,54.56,31h0c.55.07,1.12.1,1.67.16,1.35.14,2.69.29,4.06.38.62,0,1.26,0,1.88.07,1.33.06,2.66.14,4,.15C1300,1188.46,1300.88,1188.42,1301.77,1188.41Z"/><path class="cls-68" d="M1301.77,1188.41c1.1,0,2.19,0,3.29-.06q3-.13,6-.44l-1-6.32c-1-.39-2-.79-3-1.18l-1.48-.61-1.39-.58c-.67-.28-1.31-.57-2-.85l-.78-.34-2.22-1-.37-.17c-.79-.37-1.55-.75-2.31-1.12l-.16-.08c-.8-.39-1.57-.79-2.32-1.18l0,0c-1.54-.8-3-1.61-4.38-2.42-17.12-10-22.78-20.16-24.52-28.15-4.91-22.48,19.12-36.91,12.91-61.29-4.68-18.36-24.42-34.09-36.58-30.42-13.73,4.14-15.88,30.75-17.21,47.13-1.49,18.44-3.15,39,8.65,57.39,11.17,17.43,31.34,28.15,54.56,31h0c.55.07,1.12.1,1.67.16,1.35.14,2.69.29,4.06.38.62,0,1.26,0,1.88.07,1.33.06,2.66.14,4,.15C1300,1188.46,1300.88,1188.42,1301.77,1188.41Z"/><path class="cls-69" d="M1190,1057.76c-2.62-4.17,9.62-10.31,13.6-27.4,3.36-14.43-3.5-18.09.24-37.4,2.08-10.76,5.64-17,9.78-21.55,3.42-3.73,7.85-8.59,11.85-8,12.54,2,27.4,59,2.34,83.9C1214.89,1060.13,1193.13,1062.78,1190,1057.76Z"/><path class="cls-70" d="M1255.78,1238.35c-.57-1.31-3.71,2-6.63,5.48q.57,7.55,1.13,15.07a12.55,12.55,0,0,0-3.82-1.72c-1.78-.41-4.84.23-5.08,1.08-1.45,5.24,11.6,6.38,13,4.73a4.68,4.68,0,0,0,1.11-3.57c-1.33-7.54-1.15-12.65-.53-16.18C1255.44,1240.76,1256.1,1239.08,1255.78,1238.35Z"/><path class="cls-71" d="M1289.23,1069.85c-7.45-11-14.71-22.1-22-33.19a18.29,18.29,0,0,1-2.66-7.37,50.55,50.55,0,0,0-8.21,8.26c-2,10.27-5.22,25.73-9.4,44.46-10.61,47.59-15.08,59.51-17.33,74.48-3.46,23-2.24,57,20.64,102.41l5.24.52c3.67-38.87,7.89-74,10-92,.72-6.11,2.85-24.47,12.68-39.25.16-.24,14.7-20.12,19.71-28.06,1.67-2.65,3.76-6.08,6.14-10.66C1298.43,1083.54,1293.92,1076.76,1289.23,1069.85Z"/><path class="cls-72" d="M1289.23,1069.85c-7.45-11-14.71-22.1-22-33.19a18.29,18.29,0,0,1-2.66-7.37,50.55,50.55,0,0,0-8.21,8.26c-3.25,12.56-5.57,23.31-7.19,31.53-4.5,22.8-4.24,29.11-1,34.77,4.43,7.78,9.53,5.68,12.77,12.45,5.67,11.88-9.52,20-9.38,42.89.07,12.7,4.61,15.89,2.55,27.54a67.19,67.19,0,0,0-1.38,18.7c.29,4,.61,3.12.86,6.72.69,10.27-1.75,19.71-.69,26.12a14.88,14.88,0,0,0,1.47,4.49,14.32,14.32,0,0,0,2.45,3.4c3.33-33.47,6.85-62.77,8.73-78.73.72-6.11,2.85-24.47,12.68-39.25.16-.24,14.7-20.12,19.71-28.06,1.67-2.65,3.76-6.08,6.14-10.66C1298.43,1083.54,1293.92,1076.76,1289.23,1069.85Z"/><path class="cls-73" d="M1212.13,973.8a34.34,34.34,0,0,0-3.63,20.88c1.54,11.26,8.12,18.77,10.33,21.6,7.4,9.52,13.18,28.34,4,69.59a65,65,0,0,1,23.54.44c25.15,5.24,35.2,23.92,47.26,20.51,4.46-1.25,10.51-5.89,14.73-23.22,3.69-9,15.18-40.27,3.4-77a112.17,112.17,0,0,0-32.66-49.6c-6.91-2.32-28.46-8.61-49,1.32C1225,960.77,1217.07,964.75,1212.13,973.8Z"/><path class="cls-74" d="M1235.68,1027.07l-19.24-6.8a1.19,1.19,0,0,1-.76-.74l-3.19-8.68a1.21,1.21,0,0,1,1.39-1.6l18.08,3.91a2.14,2.14,0,0,1,1.61,1.13l3.58,10.58C1237.48,1025.82,1236.63,1027.37,1235.68,1027.07Z"/><path class="cls-75" d="M1235.39,1027.18l-18.59-6a1.23,1.23,0,0,1-.77-.74l-3.19-8.68a1.21,1.21,0,0,1,1.39-1.6l18.08,3.91a1.23,1.23,0,0,1,.89.79l3.7,10.72A1.21,1.21,0,0,1,1235.39,1027.18Z"/><path class="cls-76" d="M1243.82,1021.37l-2.08-1a38.09,38.09,0,0,0-5.47-3.36c-2.2-1-4-.73-5.34,1.3s1,3.94,2.93,5.62c1.21,1,3.73,1.11,5.77,1a16.32,16.32,0,0,1,4.3.91Z"/><path class="cls-77" d="M1239.88,939.77c0,1.81.07,11.53,4.38,13.12,1,.35,1.71.13,5.89.24,2.39.06,4.33.19,5.58.28a30.42,30.42,0,0,1-1.52,6.38c-5.37,15.12-22.76,25.62-28.65,21.83-3.07-2-3.3-7.88-3.4-10.33a20.54,20.54,0,0,1,1.39-8.27q3.23-2.35,6.62-4.71,2.2-1.53,4.4-3l-.3-5.57Z"/><path class="cls-78" d="M1241.77,943.35s0,8-6.37,10.6c-5.71,2.33-13.21-11.1-11-15.45a8.16,8.16,0,0,1,5.19-3.56c1.54-.27,7.92-.31,9.72,4.7.54-1.58,1.61-2.61,2.72-2.62a2.09,2.09,0,0,1,1.08.36C1244.63,938.42,1244.21,940.86,1241.77,943.35Z"/><path class="cls-79" d="M1311.74,1006.57a111.3,111.3,0,0,0-26.41-43.65c-9.72,6.43-19.6,15.13-18.78,24.46.94,10.62,15.13,15,13.8,21.72-1.92,9.74-32.82,6-36.42,16.76-4.25,12.62,32.39,36.36,30.43,39.05-1.41,1.92-18.26-11.66-37.39-8.5a26.54,26.54,0,0,0-10,4,205.13,205.13,0,0,1-4.17,25.49,65,65,0,0,1,23.54.44c25.15,5.24,35.2,23.92,47.26,20.51,4.46-1.25,10.51-5.89,14.73-23.22C1312,1074.59,1323.52,1043.33,1311.74,1006.57Z"/><path class="cls-80" d="M1265.4,957.7c5.84-1.46,5.87-3.36,13.68-.73,22.42,7.55,46.16,41.4,33.89,65.3-6.82,13.29-23.17,25.28-41.2,22.51-14.68-2.25-23.3-13.18-25.49-16.14l-2.55-10.2c9.57,5.43,16.3,5.42,20.82,4.25,7.68-2,9.39-7.5,22.09-12.32,4.94-1.87,7.92-2.26,8.07-3.82.31-3.22-12.13-4.29-20-11C1269,990.58,1263.32,980.55,1265.4,957.7Z"/><ellipse class="cls-81" cx="973.2" cy="1264.87" rx="7.87" ry="10.35"/><path class="cls-82" d="M983.26,1266c0,5.71-3.52,10.35-7.87,10.35s-7.86-4.64-7.86-10.35,3.52-10.35,7.86-10.35S983.26,1260.33,983.26,1266Z"/><path class="cls-83" d="M978.69,1266.25c0,2.39-1.48,4.33-3.3,4.33s-3.29-1.94-3.29-4.33,1.47-4.34,3.29-4.34S978.69,1263.85,978.69,1266.25Z"/><path class="cls-84" d="M973.2,1253.41v11.36a3,3,0,0,0,5.46,1.78l10.22-14Z"/><path class="cls-85" d="M1065.27,1255.8c0,5.71-3.52,10.35-7.86,10.35s-7.87-4.64-7.87-10.35,3.52-10.35,7.87-10.35S1065.27,1250.09,1065.27,1255.8Z"/><path class="cls-86" d="M1067.46,1257c0,5.71-3.52,10.34-7.86,10.34s-7.87-4.63-7.87-10.34,3.52-10.35,7.87-10.35S1067.46,1251.25,1067.46,1257Z"/><path class="cls-87" d="M1062.89,1257.18c0,2.39-1.47,4.33-3.29,4.33s-3.3-1.94-3.3-4.33,1.48-4.34,3.3-4.34S1062.89,1254.78,1062.89,1257.18Z"/><path class="cls-84" d="M1057.41,1244.34v11.36a3,3,0,0,0,5.46,1.78l10.21-14Z"/><path class="cls-84" d="M972,1255.18a2.07,2.07,0,0,1-.23-4.12l99.72-11.23a14.49,14.49,0,0,0,11.41-10.49l41.77-155.52a20.11,20.11,0,0,1,18-14.83l30.34-1.81a2.06,2.06,0,1,1,.24,4.12l-30.31,1.8a16,16,0,0,0-14.3,11.79l-41.77,155.52a18.66,18.66,0,0,1-14.82,13.5l-99.84,11.25Z"/><path class="cls-84" d="M1041.4,1194a2.07,2.07,0,0,1-2-1.5l-23.48-82.17a2.06,2.06,0,1,1,4-1.13l23.48,82.17a2.07,2.07,0,0,1-1.42,2.55A2.24,2.24,0,0,1,1041.4,1194Z"/><path class="cls-84" d="M1065.43,1190.52a2.07,2.07,0,0,1-2-1.7l-14.48-81.39a2.06,2.06,0,1,1,4.06-.73l14.48,81.4a2.06,2.06,0,0,1-1.67,2.39Z"/><path class="cls-84" d="M1080.35,1187.85h-.08a2.07,2.07,0,0,1-2-2.15l3.34-80.53a2,2,0,0,1,2.15-2,2.06,2.06,0,0,1,2,2.14l-3.35,80.54A2.06,2.06,0,0,1,1080.35,1187.85Z"/><path class="cls-84" d="M1008.64,1197a2.06,2.06,0,0,1-2-1.41l-27.57-82.2A2.06,2.06,0,0,1,983,1112l27.57,82.2a2.05,2.05,0,0,1-1.3,2.61A1.81,1.81,0,0,1,1008.64,1197Z"/><path class="cls-88" d="M1244,1068.46l-.34,0-67.86-5.58a4.12,4.12,0,1,1,.67-8.22l67.87,5.58a4.13,4.13,0,0,1-.34,8.24Z"/><path class="cls-89" d="M1054.94,1293.09c0,5.71-3.52,10.35-7.86,10.35s-7.87-4.64-7.87-10.35,3.53-10.35,7.87-10.35S1054.94,1287.38,1054.94,1293.09Z"/><path class="cls-90" d="M1057.14,1294.26c0,5.71-3.53,10.34-7.87,10.34s-7.86-4.63-7.86-10.34,3.52-10.35,7.86-10.35S1057.14,1288.54,1057.14,1294.26Z"/><path class="cls-91" d="M1052.57,1294.47c0,2.39-1.48,4.33-3.3,4.33s-3.3-1.94-3.3-4.33,1.48-4.34,3.3-4.34S1052.57,1292.07,1052.57,1294.47Z"/><path class="cls-92" d="M1047.08,1281.63V1293a3,3,0,0,0,5.46,1.78l10.22-14Z"/><path class="cls-93" d="M1127.85,1285.79c0,5.71-3.52,10.35-7.87,10.35s-7.86-4.64-7.86-10.35,3.52-10.35,7.86-10.35S1127.85,1280.08,1127.85,1285.79Z"/><path class="cls-94" d="M1130,1287c0,5.71-3.52,10.34-7.87,10.34s-7.86-4.63-7.86-10.34,3.52-10.35,7.86-10.35S1130,1281.24,1130,1287Z"/><path class="cls-95" d="M1125.47,1287.17c0,2.39-1.48,4.33-3.3,4.33s-3.29-1.94-3.29-4.33,1.47-4.34,3.29-4.34S1125.47,1284.77,1125.47,1287.17Z"/><path class="cls-92" d="M1120,1274.33v11.36a3,3,0,0,0,5.46,1.78l10.22-14Z"/><path class="cls-84" d="M941,1116.64a2.06,2.06,0,0,1-.14-4.12l177.6-12.78a2,2,0,0,1,.49,0l73.53,12.53a2.06,2.06,0,0,1-.7,4.06l-73.28-12.48-177.35,12.77Z"/><path class="cls-92" d="M1001.35,1135a2.47,2.47,0,0,1-.6-.08l-60.34-18.33a2.06,2.06,0,1,1,1.19-3.94l60,18.2,190.37-18.54a2,2,0,0,1,2.25,1.85,2.06,2.06,0,0,1-1.85,2.25L1001.55,1135Z"/><path class="cls-84" d="M1169.16,1199.79a1.73,1.73,0,0,1-.32,0l-72.35-11.1-110.07,10.6a2.06,2.06,0,1,1-.39-4.11l110.32-10.62a2.16,2.16,0,0,1,.51,0l72.61,11.14a2.06,2.06,0,0,1-.31,4.1Z"/><path class="cls-92" d="M1038,1212.26a2,2,0,0,1-1.86-1.18l-36.62-77.3a2.06,2.06,0,1,1,3.72-1.76l36,76L1169,1195.67a2.06,2.06,0,0,1,.39,4.11l-131.18,12.47Z"/><path class="cls-92" d="M1038,1212.26a2.22,2.22,0,0,1-.51-.06l-51.75-13a2.08,2.08,0,0,1-1.31-1l-45.21-82.62a2.06,2.06,0,1,1,3.62-2l44.78,81.83,50.88,12.78a2.06,2.06,0,0,1-.5,4.06Z"/><path class="cls-92" d="M1014.67,1163.08a1.9,1.9,0,0,1-.58-.09l-56.83-16.65a2.06,2.06,0,0,1,1.16-4l56.46,16.55,167.82-14.64a2,2,0,0,1,2.23,1.88,2.06,2.06,0,0,1-1.87,2.23l-168.21,14.67Z"/><path class="cls-92" d="M1028.56,1192.38a2.1,2.1,0,0,1-.56-.07l-54.45-15.26a2.06,2.06,0,1,1,1.12-4l54.08,15.15,145.73-12.75a2.06,2.06,0,0,1,.36,4.11l-146.1,12.79Z"/><path class="cls-92" d="M1064.76,1209.71a2.06,2.06,0,0,1-2-1.47l-23.35-78.36a2.06,2.06,0,1,1,4-1.18l23.36,78.36a2.08,2.08,0,0,1-1.39,2.57A2,2,0,0,1,1064.76,1209.71Z"/><path class="cls-92" d="M1090.6,1207.26a2.06,2.06,0,0,1-2-1.71l-14-79.39a2.06,2.06,0,1,1,4.06-.71l14,79.39a2.06,2.06,0,0,1-1.67,2.39Z"/><path class="cls-92" d="M1119.74,1203.94a2.06,2.06,0,0,1-2.06-2l-4.42-78.82a2.06,2.06,0,1,1,4.12-.23l4.42,78.82a2.08,2.08,0,0,1-2,2.18Z"/><path class="cls-92" d="M1147.35,1200.85h-.11a2.07,2.07,0,0,1-2-2.17l4.2-80.09a2.06,2.06,0,0,1,4.12.22l-4.2,80.09A2.05,2.05,0,0,1,1147.35,1200.85Z"/><path class="cls-92" d="M1022.32,1208.33a2.07,2.07,0,0,1-1.86-1.17l-37.74-78.46a2.06,2.06,0,0,1,3.71-1.79l37.75,78.46a2.07,2.07,0,0,1-1,2.76A2.22,2.22,0,0,1,1022.32,1208.33Z"/><path class="cls-92" d="M1001.35,1203.06a2,2,0,0,1-1.84-1.14l-40.07-80.26a2.06,2.06,0,1,1,3.68-1.85l40.08,80.27a2.07,2.07,0,0,1-.93,2.77A2,2,0,0,1,1001.35,1203.06Z"/><path class="cls-92" d="M1046.68,1284.81a2,2,0,0,1-.76-.15L971.27,1255a2.06,2.06,0,1,1,1.52-3.83l74.17,29.43,90-11a15.82,15.82,0,0,0,13.38-11.54l49.36-179.22a20.14,20.14,0,0,1,17.92-14.7l26.19-1.9a2.1,2.1,0,0,1,2.21,1.91,2.07,2.07,0,0,1-1.91,2.21l-26.2,1.9a16,16,0,0,0-14.23,11.68l-49.37,179.22a19.93,19.93,0,0,1-16.85,14.54l-90.58,11.06Z"/><path class="cls-96" d="M1196.23,1057.12c-.65,0-9.74-.28-10.6,2.41a2.8,2.8,0,0,0,0,1.52c.47,1.61,2.47,2.16,2.76,2.23-3.06,2-6.74,1.43-8.5-.74a5.5,5.5,0,0,1-.61-5.79,6,6,0,0,1,3.59-2.71C1189.64,1051.81,1196.23,1057.12,1196.23,1057.12Z"/><path class="cls-97" d="M990.7,289.86a5.81,5.81,0,0,1-2.89-5.34c.12-2.38.49-5.11,1.48-5.38,1.79-.48,12.23,6.92,16.33,10.33s11.81,11.39,11.73,13.77C1017.29,305.16,998.17,294.21,990.7,289.86Z"/><path class="cls-98" d="M986.69,301.83l2.64-10.92a2.95,2.95,0,0,1,5.79.29l2,14.6Z"/><polygon class="cls-99" points="942.14 301.38 943.24 290.1 948.89 288.8 950.93 301.31 942.14 301.38"/><path class="cls-100" d="M941.75,295.33c3.08,3.95,16.29-4.41,22-7.68,3.7-2.13,5.33-5.58,5-8.1s-5.81-1.59-11,1.29c-2.91,1.6-10.39,3.84-14.21,6.82C940.49,290,940.16,293.3,941.75,295.33Z"/><path class="cls-101" d="M891.78,384.17c-7-7.2-14.3-19.06-11-23.21,5.16-6.5,29.5,14.25,44.58,6.72,8.68-4.34,16.76-19.29,11.08-68.62l15.73-.16a128.88,128.88,0,0,1,10.28,51.7c0,.37,0,.93,0,1.65-.23,10.68-.91,35.37-13.91,45.39C933.66,409.11,906,398.79,891.78,384.17Z"/><path class="cls-102" d="M868.85,351.92c3.08-1.4,5.73-2,8.39-1.4,7,1.47,8.69,9.61,15.11,17,8.06,9.19,19,11.87,22.18,12.64,19.4,4.75,36.32-5.55,39.31-7.46l.67-.44c32.91-21.5,28.42-71.68,28.17-74.16l16.73,2.9c2.33,4.79,19.5,41.55.92,77.51-2.58,5-11.35,21.43-30.14,31.62-19.28,10.46-32.5,5.35-79.54,3.23-55.23-2.49-68.26,3.15-72.72-5.5C809.41,391.27,855.62,358,868.85,351.92Z"/><path class="cls-24" d="M757.38,343.73c-7.16-6.69-10.69-17.1-10.69-17.1-2.76-6.55-4.39-10.42-3.41-15.11,1.79-8.62,11.37-15.28,20.15-15.88,8.37-.57,10.68,4.73,20.16,7,15.6,3.78,30.31-5.5,33.18-7.31,18.4-11.61,12.68-26.56,29.58-42.53,1.17-1.11,22.64-20.78,48.14-14.74,21.68,5.13,39.24,27.19,38.47,50.08-.86,25.76-24.73,46.83-44,49.16-7.49.91-16.86-.71-27.79,5.5-6.64,3.77-9.25,7.82-12.52,11C829.38,372.52,781.37,366.17,757.38,343.73Z"/><path class="cls-103" d="M756,347.4c-3.69.91-3.47,5.85-11.71,16.45-4.34,5.57-7.86,10.09-12.81,13.18-15.45,9.68-31.85-2.67-41,6.89-2.46,2.57-5.17,7.51-3.66,11.3,2.74,6.9,17.41,4.7,67.48,2.75,20.33-.8,25.26-.72,28.1-4.89C791.21,380.07,766.59,344.8,756,347.4Z"/><path class="cls-104" d="M695.84,393.82l79.9,3.89a3.32,3.32,0,0,1,2.68,1.58l2.21,3.54a2.6,2.6,0,0,1-2.3,4l-84.63-3.22Z"/><path class="cls-105" d="M612.74,349.33l82.54,1.6a6.92,6.92,0,0,1,5.89,3.5l28.58,50.29-87.17-3.47a7.1,7.1,0,0,1-5.81-3.45l-26.48-44.24A2.79,2.79,0,0,1,612.74,349.33Z"/><path class="cls-106" d="M701.17,354.43a6.92,6.92,0,0,0-5.89-3.5l-1.81,0a12.85,12.85,0,0,1-2.71,7.07c-5.09,6.15-13.55,2.36-19.85,8.86-6.93,7.14-.53,15.64-6.72,22.29-6.52,7-17.05,1.3-29.16,5.78l1.74,2.91a7.1,7.1,0,0,0,5.81,3.45l87.17,3.47Z"/><path class="cls-107" d="M771.29,332.65c-6.58,2.16-13.5,4.33-17.5,10.39-7.48,11.31-2.85,33.12,6.69,45.8,6.68,8.87,16.3,11.74,35.27,17.1,24.57,6.95,36.67,10,46.59,4,10.87-6.62,6.6-16.5,23.16-38.17,12.38-16.19,22.87-21.29,21.37-26.87-1.68-6.21-16.31-5.9-21.88-5.78-21.93.47-24.1,10.38-38.1,8.83-16.43-1.81-18.2-16-38.35-17.4A46.08,46.08,0,0,0,771.29,332.65Z"/><path class="cls-107" d="M771.29,332.65c-6.58,2.16-13.5,4.33-17.5,10.39-7.48,11.31-2.85,33.12,6.69,45.8,6.68,8.87,16.3,11.74,35.27,17.1,24.57,6.95,36.67,10,46.59,4,10.87-6.62,6.6-16.5,23.16-38.17,12.38-16.19,22.87-21.29,21.37-26.87-1.68-6.21-16.31-5.9-21.88-5.78-21.93.47-24.1,10.38-38.1,8.83-16.43-1.81-18.2-16-38.35-17.4A46.08,46.08,0,0,0,771.29,332.65Z"/><path class="cls-108" d="M846.55,376.63c-9,4.93-14.57-2.38-33.44-3.67-25.86-1.76-35.08,10.65-49.92,4.12A29.77,29.77,0,0,1,751,366.86a55.13,55.13,0,0,0,9.44,22c6.68,8.87,16.3,11.74,35.27,17.1,24.57,6.95,36.67,10,46.59,4,10.87-6.62,6.6-16.5,23.16-38.17,12.38-16.19,22.87-21.29,21.37-26.87a5.27,5.27,0,0,0-2.37-3c-10,1.23-16.54,4.75-21,9.08C853.88,360.31,856.29,371.27,846.55,376.63Z"/><path class="cls-109" d="M765.21,335.79c-1.88.95-5,2.6-6.23,4.92-2.16,4.21,1.4,12.33,6,13.28,3.79.79,5.53-3.89,15.27-11,8.86-6.46,14.65-7.85,14.28-10-.24-1.34-3-2.84-14.88-3.14-1.73-2.44-6.37-6.59-8.11-9-2.61.42-2.3,2.54-4.91,3,4.14,5.67,4.18,8.23,3.38,9.51C769.3,334.44,768.15,334.32,765.21,335.79Z"/><path class="cls-110" d="M772.33,321.16s0,6.9-5.49,9.14c-4.93,2-11.4-9.57-9.45-13.33a7.05,7.05,0,0,1,4.48-3.07c1.33-.23,6.83-.27,8.39,4.06.46-1.37,1.38-2.26,2.34-2.27a1.87,1.87,0,0,1,.93.31C774.8,316.9,774.44,319,772.33,321.16Z"/><path class="cls-111" d="M742.44,396.58c-1-1.21,2.38-7.71,8.25-9.95,6.21-2.37,12.17,1.18,13.14,1.77l-.68,4.63a36.45,36.45,0,0,0-11.54.87C745.9,395.28,743.17,397.45,742.44,396.58Z"/><path class="cls-112" d="M763.43,387a78.2,78.2,0,0,1,13.74-2.75c11.38-1.22,15.52.9,20.88-2,4.81-2.59,9.29-8.52,9.68-14.8.67-10.73-11-16.13-10.1-29.62.19-2.89.78-3.61,1.22-4,4.78-3.89,25.34,7.38,34.51,24.73,2.13,4,11.33,22.91,2.14,38.17-10.46,17.38-38,18.91-55.56,10.28a45.64,45.64,0,0,1-16.5-14.09C763.43,391,763.43,389,763.43,387Z"/><path class="cls-113" d="M512.6,1219.93v20.76c0,6.71,41.9,12.15,93.6,12.15s93.61-5.44,93.61-12.15v-20.76Z"/><ellipse class="cls-114" cx="606.2" cy="1219.93" rx="93.61" ry="12.15"/><path class="cls-115" d="M606.2,1232.92c-45.78,0-93.66-4.38-93.66-12.81,0-.47.17-1.28.63-1.28s.26.64.26,1.1c0,5.35,38.1,11.31,92.77,11.31s92.77-6,92.77-11.31c0-.46.08-.9.54-.9s.35.62.35,1.08C699.86,1228.55,652,1232.92,606.2,1232.92Z"/><path class="cls-116" d="M597.36,1220.61c.91-.64,1.89-1.27,2.94-1.88a18.21,18.21,0,0,1,4-1.68,37.7,37.7,0,0,1,6.17-1.22,77.55,77.55,0,0,1,9.24-.5c3.62,0,7,.1,10.19.34a70.59,70.59,0,0,1,8.38,1.11,26.49,26.49,0,0,1,5.88,1.83,4.64,4.64,0,0,1,2.69,2.49l10.54.11a10.1,10.1,0,0,1,2,.18c.59.12.87.28.87.46v.87l-13.55-.13q-.72,1.59-3.63,2.91a36.75,36.75,0,0,1-7.43,2.3l-4.94-.69a5.64,5.64,0,0,1-1.09-.26c-.28-.1-.42-.21-.42-.34s.38-.35,1.14-.57,1.63-.48,2.59-.79a26.25,26.25,0,0,0,2.82-1.12,3.84,3.84,0,0,0,1.86-1.54l-32-.32a28.28,28.28,0,0,1-2.83,1.82,17.71,17.71,0,0,1-4.15,1.61,42.94,42.94,0,0,1-6.43,1.17,93.41,93.41,0,0,1-9.71.47c-2.93,0-5.78-.09-8.58-.33a59.59,59.59,0,0,1-7.44-1.06,23.19,23.19,0,0,1-5.34-1.75c-1.39-.7-2.17-1.49-2.33-2.4l-8.68-.09a10.64,10.64,0,0,1-2.05-.18c-.6-.11-.9-.27-.9-.46v-.87l11.87.12a6.34,6.34,0,0,1,3.24-2.39,37.38,37.38,0,0,1,6-1.81l4,.54q1.8.26,1.8.6c0,.12-.24.27-.74.46l-1.78.65a16,16,0,0,0-2,.89,4.23,4.23,0,0,0-1.44,1.16Zm-29.27,1.18a3.11,3.11,0,0,0,1.57,1.47,13,13,0,0,0,3,1,29.33,29.33,0,0,0,4.06.58q2.26.2,4.74.18a48.13,48.13,0,0,0,5-.25,29.22,29.22,0,0,0,3.76-.64,18.06,18.06,0,0,0,2.83-.93,15,15,0,0,0,2.16-1.16Zm69.62-.78a3.28,3.28,0,0,0-1.72-1.51,15.45,15.45,0,0,0-3.47-1.1,40.48,40.48,0,0,0-4.91-.66q-2.8-.21-6.18-.2a47.2,47.2,0,0,0-5.18.27,26.27,26.27,0,0,0-3.76.69,13.48,13.48,0,0,0-2.7,1,19.46,19.46,0,0,0-2.07,1.22Z"/><path class="cls-117" d="M606.21,1209.1c-41.73,0-85.19,3.67-92.14,10.78a9.58,9.58,0,0,1,.76.8c5.86-4.94,41.74-9.91,91.38-9.91,50.92,0,87.38,5.23,91.8,10.29a7.46,7.46,0,0,1,.7-.79C693,1212.91,648.69,1209.1,606.21,1209.1Z"/><path class="cls-118" d="M486.57,1198.12v20.76c0,6.71,41.91,12.15,93.61,12.15s93.6-5.44,93.6-12.15v-20.76Z"/><ellipse class="cls-119" cx="580.18" cy="1198.12" rx="93.61" ry="12.15"/><path class="cls-120" d="M580.18,1211.11c-45.79,0-93.66-4.38-93.66-12.81,0-.46.16-1.28.63-1.28s.26.64.26,1.1c0,5.35,38.1,11.31,92.77,11.31s92.77-6,92.77-11.31c0-.46.08-.89.54-.89s.35.61.35,1.08C673.84,1206.74,626,1211.11,580.18,1211.11Z"/><path class="cls-116" d="M571.33,1198.8c.92-.64,1.9-1.26,2.95-1.88a18.21,18.21,0,0,1,4-1.68,38.79,38.79,0,0,1,6.17-1.22,79.59,79.59,0,0,1,9.24-.5c3.62,0,7,.1,10.19.35a66.67,66.67,0,0,1,8.38,1.11,26.17,26.17,0,0,1,5.88,1.82,4.7,4.7,0,0,1,2.69,2.49l10.54.11a10.05,10.05,0,0,1,2,.19c.59.12.87.27.87.45v.87l-13.55-.13q-.72,1.59-3.64,2.92a37,37,0,0,1-7.43,2.29l-4.93-.69a5.47,5.47,0,0,1-1.09-.26c-.29-.1-.42-.21-.42-.33s.38-.36,1.14-.58,1.63-.48,2.58-.79a27.27,27.27,0,0,0,2.83-1.12,3.84,3.84,0,0,0,1.86-1.54l-32-.32a28.28,28.28,0,0,1-2.83,1.82,18.5,18.5,0,0,1-4.15,1.62,44.66,44.66,0,0,1-6.43,1.16,90.85,90.85,0,0,1-9.71.47c-2.93,0-5.78-.09-8.58-.33a59.32,59.32,0,0,1-7.44-1.06,23,23,0,0,1-5.35-1.75c-1.38-.69-2.16-1.49-2.32-2.39l-8.68-.09a12.51,12.51,0,0,1-2-.18c-.6-.12-.9-.27-.9-.47v-.86l11.87.11a6.34,6.34,0,0,1,3.24-2.39,37.07,37.07,0,0,1,6-1.81l4,.54c1.21.17,1.81.37,1.81.6s-.24.27-.74.46l-1.78.65a16,16,0,0,0-2,.89,4.14,4.14,0,0,0-1.44,1.16ZM542.06,1200a3.13,3.13,0,0,0,1.58,1.47,12.1,12.1,0,0,0,3,1,30.84,30.84,0,0,0,4.06.59c1.51.12,3.09.18,4.73.17a48.19,48.19,0,0,0,5-.25,29.34,29.34,0,0,0,3.76-.63,17,17,0,0,0,2.83-.94,15.58,15.58,0,0,0,2.16-1.15Zm69.63-.77a3.25,3.25,0,0,0-1.72-1.52,15.66,15.66,0,0,0-3.47-1.09,36.8,36.8,0,0,0-4.92-.66c-1.86-.15-3.92-.21-6.17-.2a50.12,50.12,0,0,0-5.18.26,26.27,26.27,0,0,0-3.76.69,13.23,13.23,0,0,0-2.7,1,17.91,17.91,0,0,0-2.07,1.22Z"/><path class="cls-121" d="M580.19,1187.29c-41.74,0-85.19,3.67-92.14,10.78a9.58,9.58,0,0,1,.76.8c5.85-4.93,41.74-9.9,91.38-9.9,50.92,0,87.38,5.22,91.8,10.28a7.34,7.34,0,0,1,.7-.79C666.94,1191.1,622.67,1187.29,580.19,1187.29Z"/><path class="cls-122" d="M509,1176.38v20.76c0,6.71,41.91,12.15,93.6,12.15s93.61-5.44,93.61-12.15v-20.76Z"/><ellipse class="cls-123" cx="602.63" cy="1176.38" rx="93.61" ry="12.15"/><path class="cls-124" d="M602.63,1189.36c-45.78,0-93.66-4.37-93.66-12.8,0-.47.17-1.28.63-1.28s.26.63.26,1.1c0,5.35,38.1,11.31,92.77,11.31s92.77-6,92.77-11.31c0-.47.08-.9.54-.9s.35.62.35,1.08C696.29,1185,648.42,1189.36,602.63,1189.36Z"/><path class="cls-116" d="M593.79,1177.06c.92-.64,1.89-1.27,2.94-1.89a18.66,18.66,0,0,1,4-1.67,37.7,37.7,0,0,1,6.17-1.22,77.55,77.55,0,0,1,9.24-.5c3.62,0,7,.09,10.19.34a70.3,70.3,0,0,1,8.38,1.11,25.47,25.47,0,0,1,5.88,1.83,4.64,4.64,0,0,1,2.69,2.49l10.54.11a10.1,10.1,0,0,1,2,.18c.59.12.87.27.88.46v.87l-13.55-.13q-.72,1.59-3.63,2.91a36.8,36.8,0,0,1-7.43,2.29l-4.94-.68a6.5,6.5,0,0,1-1.09-.26c-.28-.1-.42-.22-.42-.34s.38-.36,1.14-.57,1.63-.48,2.59-.8a25.13,25.13,0,0,0,2.83-1.11,3.86,3.86,0,0,0,1.85-1.54l-32-.32a30.18,30.18,0,0,1-2.83,1.82,17.79,17.79,0,0,1-4.14,1.61,42.21,42.21,0,0,1-6.44,1.16,90.3,90.3,0,0,1-9.7.48c-2.94,0-5.79-.1-8.58-.33a59.5,59.5,0,0,1-7.45-1.06,23.68,23.68,0,0,1-5.34-1.75c-1.39-.7-2.17-1.5-2.33-2.4l-8.68-.09a10.64,10.64,0,0,1-2-.18c-.59-.11-.9-.27-.9-.46v-.87l11.86.11a6.33,6.33,0,0,1,3.24-2.38,37.31,37.31,0,0,1,6-1.82l4,.55q1.8.26,1.8.6c0,.12-.24.27-.74.45l-1.78.66a16,16,0,0,0-2,.89,4.22,4.22,0,0,0-1.44,1.15Zm-29.27,1.18a3.15,3.15,0,0,0,1.57,1.47,13,13,0,0,0,3,1,31.18,31.18,0,0,0,4.06.58c1.51.13,3.09.18,4.74.18,1.92,0,3.59-.1,5-.25a29.39,29.39,0,0,0,3.77-.64,18.79,18.79,0,0,0,2.83-.93,16.19,16.19,0,0,0,2.16-1.16Zm69.62-.78a3.24,3.24,0,0,0-1.72-1.51,15.29,15.29,0,0,0-3.47-1.1,40.48,40.48,0,0,0-4.91-.66c-1.87-.14-3.92-.21-6.18-.2a47,47,0,0,0-5.17.27,27.74,27.74,0,0,0-3.77.68,14.36,14.36,0,0,0-2.7,1,20.52,20.52,0,0,0-2.07,1.22Z"/><path class="cls-125" d="M602.65,1165.55c-41.74,0-85.2,3.67-92.15,10.78a9.58,9.58,0,0,1,.76.8c5.86-4.94,41.74-9.91,91.39-9.91,50.91,0,87.37,5.23,91.79,10.29a8.78,8.78,0,0,1,.7-.79C689.4,1169.35,645.12,1165.55,602.65,1165.55Z"/><path class="cls-126" d="M522.65,1154.57v20.76c0,6.71,41.91,12.15,93.61,12.15s93.6-5.44,93.6-12.15v-20.76Z"/><path class="cls-127" d="M709.86,1154.57c0,6.71-41.91,12.15-93.6,12.15s-93.61-5.44-93.61-12.15,41.91-12.15,93.61-12.15S709.86,1147.86,709.86,1154.57Z"/><path class="cls-128" d="M616.26,1167.55c-45.79,0-93.66-4.37-93.66-12.8,0-.47.16-1.28.63-1.28s.26.64.26,1.1c0,5.35,38.1,11.31,92.77,11.31s92.77-6,92.77-11.31c0-.46.07-.9.54-.9s.35.62.35,1.08C709.92,1163.19,662,1167.55,616.26,1167.55Z"/><path class="cls-116" d="M607.41,1155.25q1.38-1,2.94-1.89a19.06,19.06,0,0,1,4-1.67,37.7,37.7,0,0,1,6.17-1.22,77.3,77.3,0,0,1,9.24-.5c3.62,0,7,.1,10.19.34a70.4,70.4,0,0,1,8.37,1.11,26.07,26.07,0,0,1,5.89,1.83,4.64,4.64,0,0,1,2.69,2.49l10.54.11a10.1,10.1,0,0,1,2,.18c.58.12.87.28.87.46v.87l-13.55-.13q-.7,1.59-3.63,2.91a36.34,36.34,0,0,1-7.43,2.3l-4.93-.69a5.47,5.47,0,0,1-1.09-.26c-.29-.1-.42-.21-.43-.34s.39-.35,1.15-.57,1.62-.48,2.58-.79a27.27,27.27,0,0,0,2.83-1.12,3.89,3.89,0,0,0,1.86-1.54l-32-.32a28.09,28.09,0,0,1-2.82,1.82,18.07,18.07,0,0,1-4.15,1.61,43.1,43.1,0,0,1-6.44,1.17,93.2,93.2,0,0,1-9.7.47c-2.93,0-5.78-.1-8.58-.33a59.77,59.77,0,0,1-7.45-1.06,23.52,23.52,0,0,1-5.34-1.75c-1.38-.7-2.16-1.49-2.32-2.4l-8.68-.09a10.64,10.64,0,0,1-2-.18c-.6-.11-.9-.27-.9-.46v-.87l11.87.12a6.3,6.3,0,0,1,3.24-2.39,36.09,36.09,0,0,1,6-1.81l4,.54c1.21.17,1.81.37,1.81.6s-.24.27-.74.45l-1.78.66a15.33,15.33,0,0,0-2,.89,4.16,4.16,0,0,0-1.45,1.16Zm-29.27,1.18a3.13,3.13,0,0,0,1.58,1.47,13,13,0,0,0,3,1,31.34,31.34,0,0,0,4.07.58c1.51.13,3.08.19,4.73.18a48.33,48.33,0,0,0,5-.25,29.22,29.22,0,0,0,3.76-.64,18.06,18.06,0,0,0,2.83-.93,15.59,15.59,0,0,0,2.16-1.16Zm69.63-.78a3.27,3.27,0,0,0-1.73-1.51,15.35,15.35,0,0,0-3.46-1.1,40.39,40.39,0,0,0-4.92-.66q-2.79-.21-6.17-.2a47.2,47.2,0,0,0-5.18.27,26.27,26.27,0,0,0-3.76.69,13.26,13.26,0,0,0-2.7,1,18.51,18.51,0,0,0-2.07,1.22Z"/><path class="cls-129" d="M616.27,1143.74c-41.74,0-85.19,3.67-92.15,10.78a7.14,7.14,0,0,1,.76.8c5.86-4.94,41.75-9.91,91.39-9.91,50.92,0,87.38,5.23,91.79,10.29a8.78,8.78,0,0,1,.7-.79C703,1147.55,658.75,1143.74,616.27,1143.74Z"/><path class="cls-130" d="M512.6,1131v20.76c0,6.71,41.9,12.15,93.6,12.15s93.61-5.44,93.61-12.15V1131Z"/><ellipse class="cls-131" cx="606.2" cy="1131.04" rx="93.61" ry="12.15"/><path class="cls-132" d="M606.2,1144c-45.78,0-93.66-4.38-93.66-12.81,0-.46.17-1.28.63-1.28s.26.64.26,1.1c0,5.35,38.1,11.31,92.77,11.31s92.77-6,92.77-11.31c0-.46.08-.9.54-.9s.35.62.35,1.09C699.86,1139.66,652,1144,606.2,1144Z"/><path class="cls-116" d="M597.36,1131.72c.91-.64,1.89-1.26,2.94-1.88a18.21,18.21,0,0,1,4-1.68,37.7,37.7,0,0,1,6.17-1.22,79.73,79.73,0,0,1,9.24-.5c3.62,0,7,.1,10.19.35a66.67,66.67,0,0,1,8.38,1.11,26,26,0,0,1,5.88,1.82,4.7,4.7,0,0,1,2.69,2.49l10.54.11a10.05,10.05,0,0,1,2,.19c.59.12.87.27.87.45v.87l-13.55-.13q-.72,1.59-3.63,2.92a37.45,37.45,0,0,1-7.43,2.29l-4.94-.69a5.64,5.64,0,0,1-1.09-.26c-.28-.1-.42-.21-.42-.34s.38-.35,1.14-.57,1.63-.48,2.59-.79a26.25,26.25,0,0,0,2.82-1.12,3.84,3.84,0,0,0,1.86-1.54l-32-.32a28.28,28.28,0,0,1-2.83,1.82,18.12,18.12,0,0,1-4.15,1.62,44.4,44.4,0,0,1-6.43,1.16,90.7,90.7,0,0,1-9.71.47c-2.93,0-5.78-.09-8.58-.33a59.59,59.59,0,0,1-7.44-1.06,23.19,23.19,0,0,1-5.34-1.75c-1.39-.7-2.17-1.49-2.33-2.4l-8.68-.08a12.51,12.51,0,0,1-2.05-.18c-.6-.12-.9-.27-.9-.47v-.86l11.87.11a6.34,6.34,0,0,1,3.24-2.39,37.38,37.38,0,0,1,6-1.81l4,.54q1.8.25,1.8.6c0,.12-.24.27-.74.46l-1.78.65a16,16,0,0,0-2,.89,4.23,4.23,0,0,0-1.44,1.16Zm-29.27,1.18a3.11,3.11,0,0,0,1.57,1.47,12.51,12.51,0,0,0,3,1,29.33,29.33,0,0,0,4.06.58q2.26.19,4.74.18a48.13,48.13,0,0,0,5-.25,29.22,29.22,0,0,0,3.76-.64,17.08,17.08,0,0,0,2.83-.93,15,15,0,0,0,2.16-1.15Zm69.62-.78a3.28,3.28,0,0,0-1.72-1.51,16,16,0,0,0-3.47-1.1,38.73,38.73,0,0,0-4.91-.65q-2.8-.22-6.18-.2a47.46,47.46,0,0,0-5.18.26,26.27,26.27,0,0,0-3.76.69,13.46,13.46,0,0,0-2.7,1,17.91,17.91,0,0,0-2.07,1.22Z"/><path class="cls-133" d="M606.21,1120.21c-41.73,0-85.19,3.67-92.14,10.78a9.58,9.58,0,0,1,.76.8c5.86-4.94,41.74-9.91,91.38-9.91,50.92,0,87.38,5.23,91.8,10.29a7.46,7.46,0,0,1,.7-.79C693,1124,648.69,1120.21,606.21,1120.21Z"/><path class="cls-134" d="M486.57,1109.23V1130c0,6.7,41.91,12.14,93.61,12.14s93.6-5.44,93.6-12.14v-20.77Z"/><ellipse class="cls-135" cx="580.18" cy="1109.23" rx="93.61" ry="12.15"/><path class="cls-136" d="M580.18,1122.22c-45.79,0-93.66-4.37-93.66-12.81,0-.46.16-1.28.63-1.28s.26.64.26,1.1c0,5.35,38.1,11.31,92.77,11.31s92.77-6,92.77-11.31c0-.46.08-.89.54-.89s.35.61.35,1.08C673.84,1117.85,626,1122.22,580.18,1122.22Z"/><path class="cls-116" d="M571.33,1109.91c.92-.64,1.9-1.26,2.95-1.88a18.21,18.21,0,0,1,4-1.68,38.79,38.79,0,0,1,6.17-1.22,79.59,79.59,0,0,1,9.24-.5c3.62,0,7,.1,10.19.35a66.67,66.67,0,0,1,8.38,1.11,26.17,26.17,0,0,1,5.88,1.82,4.7,4.7,0,0,1,2.69,2.49l10.54.11a10.05,10.05,0,0,1,2,.19c.59.12.87.27.87.45v.87l-13.55-.13c-.48,1.06-1.69,2-3.64,2.92a37,37,0,0,1-7.43,2.29l-4.93-.69a5.54,5.54,0,0,1-1.09-.25c-.29-.11-.42-.22-.42-.34s.38-.36,1.14-.57,1.63-.48,2.58-.8a27.27,27.27,0,0,0,2.83-1.12,3.84,3.84,0,0,0,1.86-1.54l-32-.32a30.18,30.18,0,0,1-2.83,1.83,19,19,0,0,1-4.15,1.61,44.66,44.66,0,0,1-6.43,1.16,88.28,88.28,0,0,1-9.71.47c-2.93,0-5.78-.09-8.58-.33a57.53,57.53,0,0,1-7.44-1.06,23,23,0,0,1-5.35-1.75c-1.38-.69-2.16-1.49-2.32-2.39l-8.68-.09a12.51,12.51,0,0,1-2-.18c-.6-.12-.9-.27-.9-.47v-.86l11.87.11a6.39,6.39,0,0,1,3.24-2.39,37.07,37.07,0,0,1,6-1.81l4,.54c1.21.17,1.81.37,1.81.6s-.24.28-.74.46l-1.78.65a16,16,0,0,0-2,.89,4.14,4.14,0,0,0-1.44,1.16Zm-29.27,1.18a3.13,3.13,0,0,0,1.58,1.47,12.1,12.1,0,0,0,3,1,30.84,30.84,0,0,0,4.06.59c1.51.12,3.09.18,4.73.17a48.19,48.19,0,0,0,5-.25,29.34,29.34,0,0,0,3.76-.63,17,17,0,0,0,2.83-.94,15.58,15.58,0,0,0,2.16-1.15Zm69.63-.77a3.25,3.25,0,0,0-1.72-1.52,15.66,15.66,0,0,0-3.47-1.09,36.8,36.8,0,0,0-4.92-.66c-1.86-.15-3.92-.21-6.17-.2a47.2,47.2,0,0,0-5.18.27,26.37,26.37,0,0,0-3.76.68,13.23,13.23,0,0,0-2.7,1,17.91,17.91,0,0,0-2.07,1.22Z"/><path class="cls-137" d="M580.19,1098.4c-41.74,0-85.19,3.67-92.14,10.78a9.58,9.58,0,0,1,.76.8c5.85-4.93,41.74-9.9,91.38-9.9,50.92,0,87.38,5.23,91.8,10.28a7.34,7.34,0,0,1,.7-.79C666.94,1102.21,622.67,1098.4,580.19,1098.4Z"/><path class="cls-138" d="M509,1087.49v20.76c0,6.71,41.91,12.15,93.6,12.15s93.61-5.44,93.61-12.15v-20.76Z"/><ellipse class="cls-139" cx="602.63" cy="1087.49" rx="93.61" ry="12.15"/><path class="cls-140" d="M602.63,1100.47c-45.78,0-93.66-4.37-93.66-12.8,0-.47.17-1.28.63-1.28s.26.64.26,1.1c0,5.35,38.1,11.31,92.77,11.31s92.77-6,92.77-11.31c0-.46.08-.9.54-.9s.35.62.35,1.08C696.29,1096.11,648.42,1100.47,602.63,1100.47Z"/><path class="cls-116" d="M593.79,1088.17c.92-.64,1.89-1.27,2.94-1.89a19.18,19.18,0,0,1,4-1.67,37.7,37.7,0,0,1,6.17-1.22,77.55,77.55,0,0,1,9.24-.5c3.62,0,7,.1,10.19.34a70.3,70.3,0,0,1,8.38,1.11,26,26,0,0,1,5.88,1.83,4.64,4.64,0,0,1,2.69,2.49l10.54.11a10.1,10.1,0,0,1,2,.18c.59.12.87.27.88.46v.87l-13.55-.13q-.72,1.59-3.63,2.91a36.75,36.75,0,0,1-7.43,2.3l-4.94-.69a5.64,5.64,0,0,1-1.09-.26c-.28-.1-.42-.22-.42-.34s.38-.36,1.14-.57,1.63-.48,2.59-.8a25.13,25.13,0,0,0,2.83-1.11,3.86,3.86,0,0,0,1.85-1.54l-32-.32a30.18,30.18,0,0,1-2.83,1.82,17.79,17.79,0,0,1-4.14,1.61,43.34,43.34,0,0,1-6.44,1.17,93.35,93.35,0,0,1-9.7.47c-2.94,0-5.79-.1-8.58-.33a59.5,59.5,0,0,1-7.45-1.06,23.68,23.68,0,0,1-5.34-1.75c-1.39-.7-2.17-1.5-2.33-2.4l-8.68-.09a10.64,10.64,0,0,1-2-.18c-.59-.11-.9-.27-.9-.46v-.87l11.86.12a6.28,6.28,0,0,1,3.24-2.39,37.31,37.31,0,0,1,6-1.82l4,.55q1.8.26,1.8.6c0,.12-.24.27-.74.45l-1.78.66a16,16,0,0,0-2,.89,4.12,4.12,0,0,0-1.44,1.16Zm-29.27,1.18a3.15,3.15,0,0,0,1.57,1.47,13,13,0,0,0,3,1,31.18,31.18,0,0,0,4.06.58q2.26.19,4.74.18c1.92,0,3.59-.1,5-.25a29.39,29.39,0,0,0,3.77-.64,18.79,18.79,0,0,0,2.83-.93,16.19,16.19,0,0,0,2.16-1.16Zm69.62-.78a3.28,3.28,0,0,0-1.72-1.51A15.29,15.29,0,0,0,629,1086a40.48,40.48,0,0,0-4.91-.66c-1.87-.14-3.92-.21-6.18-.2a47,47,0,0,0-5.17.27,27.74,27.74,0,0,0-3.77.68,14.36,14.36,0,0,0-2.7,1,20.52,20.52,0,0,0-2.07,1.22Z"/><path class="cls-141" d="M602.65,1076.66c-41.74,0-85.2,3.67-92.15,10.78a9.58,9.58,0,0,1,.76.8c5.86-4.94,41.74-9.91,91.39-9.91,50.91,0,87.37,5.23,91.79,10.29a8.78,8.78,0,0,1,.7-.79C689.4,1080.46,645.12,1076.66,602.65,1076.66Z"/><path class="cls-142" d="M497.35,1065.68v20.76c0,6.71,41.91,12.15,93.6,12.15s93.61-5.44,93.61-12.15v-20.76Z"/><ellipse class="cls-143" cx="590.95" cy="1065.68" rx="93.61" ry="12.15"/><path class="cls-144" d="M591,1078.67c-45.78,0-93.66-4.38-93.66-12.81,0-.47.17-1.28.63-1.28s.27.64.27,1.1c0,5.35,38.09,11.31,92.76,11.31s92.77-6,92.77-11.31c0-.46.08-.9.54-.9s.35.62.35,1.08C684.61,1074.3,636.74,1078.67,591,1078.67Z"/><path class="cls-116" d="M582.11,1066.36c.92-.64,1.89-1.26,2.94-1.88a18.64,18.64,0,0,1,4-1.68,37.92,37.92,0,0,1,6.17-1.22,77.55,77.55,0,0,1,9.24-.5c3.62,0,7,.1,10.19.35a68.45,68.45,0,0,1,8.38,1.1,26.32,26.32,0,0,1,5.88,1.83,4.61,4.61,0,0,1,2.69,2.49l10.54.11a10,10,0,0,1,2,.18c.59.12.88.28.88.46v.87l-13.55-.13c-.47,1.06-1.69,2-3.63,2.91a36.75,36.75,0,0,1-7.43,2.3l-4.94-.69a5.64,5.64,0,0,1-1.09-.26c-.28-.1-.42-.21-.42-.34s.38-.35,1.14-.57,1.63-.48,2.59-.79a27.27,27.27,0,0,0,2.83-1.12,3.81,3.81,0,0,0,1.85-1.54l-32-.32a29.28,29.28,0,0,1-2.82,1.82,18.5,18.5,0,0,1-4.15,1.62,44.82,44.82,0,0,1-6.44,1.16,93.35,93.35,0,0,1-9.7.47q-4.4,0-8.58-.33a59.5,59.5,0,0,1-7.45-1.06,23.19,23.19,0,0,1-5.34-1.75c-1.39-.7-2.17-1.49-2.33-2.4l-8.67-.09a10.49,10.49,0,0,1-2.05-.18c-.6-.11-.91-.27-.91-.46v-.87l11.86.12a6.38,6.38,0,0,1,3.24-2.39,37.38,37.38,0,0,1,6-1.81l4,.54c1.2.17,1.8.37,1.81.6s-.25.27-.75.46l-1.78.65a16.66,16.66,0,0,0-2,.89,4.23,4.23,0,0,0-1.44,1.16Zm-29.27,1.18a3.13,3.13,0,0,0,1.58,1.47,12.71,12.71,0,0,0,3,1,29.55,29.55,0,0,0,4.06.58q2.26.2,4.74.18a48.33,48.33,0,0,0,5-.25,29.52,29.52,0,0,0,3.76-.64,17.72,17.72,0,0,0,2.83-.93,16.19,16.19,0,0,0,2.16-1.16Zm69.62-.78a3.24,3.24,0,0,0-1.72-1.51,15.29,15.29,0,0,0-3.47-1.1,40.48,40.48,0,0,0-4.91-.66q-2.79-.21-6.18-.2a47,47,0,0,0-5.17.27,26,26,0,0,0-3.76.69,13.59,13.59,0,0,0-2.71,1,18.84,18.84,0,0,0-2.07,1.23Z"/><path class="cls-145" d="M591,1054.85c-41.74,0-85.2,3.67-92.15,10.78a8.18,8.18,0,0,1,.76.8c5.86-4.94,41.74-9.91,91.39-9.91,50.91,0,87.37,5.23,91.79,10.29a8.78,8.78,0,0,1,.7-.79C677.72,1058.66,633.44,1054.85,591,1054.85Z"/><path class="cls-146" d="M711.19,1080.32l-16.92,12c-5.47,3.89,14.39,41.19,44.35,83.32s58.69,73.13,64.16,69.24l16.92-12Z"/><path class="cls-147" d="M819.7,1232.87c-5.47,3.89-34.19-27.11-64.16-69.23s-49.82-79.43-44.35-83.32,34.19,27.11,64.15,69.23S825.17,1229,819.7,1232.87Z"/><path class="cls-148" d="M754.86,1164.12c-26.54-37.31-50.72-78.86-43.85-83.74.38-.27,1.14-.61,1.4-.23s-.36.58-.74.85c-4.36,3.1,12.87,37.6,44.56,82.15s58.62,72.14,63,69c.38-.27.78-.46,1-.08s-.3.65-.68.91C812.71,1237.91,781.4,1201.43,754.86,1164.12Z"/><path class="cls-116" d="M759.76,1149.78c1,.38,2.13.81,3.24,1.31a18.34,18.34,0,0,1,3.7,2.3,38.49,38.49,0,0,1,4.57,4.32A78.1,78.1,0,0,1,777,1165q3.18,4.41,5.63,8.51a69.41,69.41,0,0,1,4,7.47,26,26,0,0,1,1.92,5.85,4.63,4.63,0,0,1-.47,3.63l6,8.65a10.76,10.76,0,0,1,1,1.76c.24.55.29.87.14,1l-.71.5-7.75-11.12q-1.71.35-4.48-1.27a36.44,36.44,0,0,1-6.17-4.72l-2.3-4.42a5.65,5.65,0,0,1-.42-1c-.09-.29-.07-.47,0-.54s.51.1,1.12.6,1.34,1,2.15,1.65a24.16,24.16,0,0,0,2.55,1.65,3.81,3.81,0,0,0,2.33.62l-18.28-26.24a31.2,31.2,0,0,1-3.12-1.25,18.63,18.63,0,0,1-3.72-2.45,43.19,43.19,0,0,1-4.68-4.57,91.21,91.21,0,0,1-6-7.63c-1.71-2.38-3.27-4.77-4.7-7.18a58.23,58.23,0,0,1-3.45-6.69,23.11,23.11,0,0,1-1.67-5.36c-.24-1.53,0-2.63.6-3.29l-4.95-7.12a11.36,11.36,0,0,1-1.05-1.77c-.25-.56-.3-.9-.14-1l.7-.5,6.79,9.73a6.34,6.34,0,0,1,3.82,1.26,37.07,37.07,0,0,1,5,3.85l1.86,3.56c.56,1.08.74,1.68.56,1.81s-.37,0-.8-.34l-1.57-1.07a16.58,16.58,0,0,0-1.87-1.09,4.15,4.15,0,0,0-1.78-.51Zm-17.93-23.17a3.21,3.21,0,0,0-.28,2.14,12.26,12.26,0,0,0,.92,3,31.77,31.77,0,0,0,1.87,3.65q1.17,2,2.61,4a49.46,49.46,0,0,0,3.11,3.95,31.14,31.14,0,0,0,2.7,2.7,18,18,0,0,0,2.41,1.76,14.85,14.85,0,0,0,2.19,1.09Zm41,56.29a3.26,3.26,0,0,0,.24-2.28,15.06,15.06,0,0,0-1.12-3.46,37.34,37.34,0,0,0-2.31-4.39q-1.44-2.4-3.42-5.15a45.77,45.77,0,0,0-3.22-4.06,25.8,25.8,0,0,0-2.73-2.67,14,14,0,0,0-2.38-1.62,17.49,17.49,0,0,0-2.2-1Z"/><path class="cls-149" d="M774.28,1150.33c-24.2-34-52.38-67.3-62.2-68.84a9.37,9.37,0,0,1-.21,1.08c7.42,1.91,32.27,28.27,61,68.73,29.51,41.49,46.39,74.23,44.82,80.76a9.28,9.28,0,0,1,1.06.11C821.46,1223.23,798.9,1184.94,774.28,1150.33Z"/></g></g></g></svg>